<?xml version="1.0" encoding="UTF-8"?>
<svg width="2209px" height="615px" viewBox="0 0 2209 615" version="1.1" xmlns="http://www.w3.org/2000/svg" xmlns:xlink="http://www.w3.org/1999/xlink">
    <!-- Generator: Sketch 57.1 (83088) - https://sketch.com -->
    <title>Group 26</title>
    <desc>Created with Sketch.</desc>
    <g id="Page-1" stroke="none" stroke-width="1" fill="none" fill-rule="evenodd">
        <g id="Proposal" transform="translate(-167107.000000, -18344.000000)">
            <g id="Group-26" transform="translate(167107.000000, 18344.000000)">
                <rect id="Rectangle" fill="#FFFFFF" x="0" y="0" width="2209" height="615"></rect>
                <g id="color2">
                    <g id="Group-25">
                        <circle id="Oval" fill="#FF9803" cx="307.5" cy="307.5" r="307.5"></circle>
                        <path d="M769.003906,247.039062 L769.003906,283.757812 C769.003906,290.919307 769.443355,295.427725 770.322266,297.283203 C771.201176,299.138681 772.763661,300.619786 775.009766,301.726562 C777.255871,302.833339 781.373668,303.386719 787.363281,303.386719 L787.363281,307 L720.078125,307 L720.078125,303.386719 C726.197947,303.386719 730.348296,302.817063 732.529297,301.677734 C734.710297,300.538406 736.24023,299.057301 737.119141,297.234375 C737.998051,295.411449 738.4375,290.919307 738.4375,283.757812 L738.4375,197.820312 C738.4375,190.658818 737.998051,186.1504 737.119141,184.294922 C736.24023,182.439444 734.694021,180.958339 732.480469,179.851562 C730.266916,178.744786 726.132843,178.191406 720.078125,178.191406 L720.078125,174.578125 L777.792969,174.578125 C796.80348,174.578125 810.442667,177.963508 818.710938,184.734375 C826.979208,191.505242 831.113281,199.968699 831.113281,210.125 C831.113281,218.718793 828.444037,226.07549 823.105469,232.195312 C817.7669,238.315135 810.410203,242.48176 801.035156,244.695312 C794.720021,246.25782 784.043044,247.039062 769.003906,247.039062 Z M769.003906,182.195312 L769.003906,239.421875 C771.152354,239.552084 772.779942,239.617188 773.886719,239.617188 C781.829467,239.617188 787.949197,237.257185 792.246094,232.537109 C796.54299,227.817034 798.691406,220.509164 798.691406,210.613281 C798.691406,200.782503 796.54299,193.588564 792.246094,189.03125 C787.949197,184.473936 781.536501,182.195312 773.007812,182.195312 L769.003906,182.195312 Z M883.464421,207.15625 L883.464421,250.28125 L885.573796,250.28125 C892.29258,250.28125 897.162323,248.171896 900.183171,243.953125 C903.20402,239.734354 905.131084,233.510458 905.964421,225.28125 L908.933171,225.28125 L908.933171,280.75 L905.964421,280.75 C905.339418,274.708303 904.024327,269.760436 902.019109,265.90625 C900.013891,262.052064 897.683185,259.460944 895.026921,258.132812 C892.370658,256.804681 888.51653,256.140625 883.464421,256.140625 L883.464421,285.984375 C883.464421,291.817738 883.711815,295.38541 884.206609,296.6875 C884.701403,297.98959 885.625873,299.057288 886.980046,299.890625 C888.33422,300.723962 890.521698,301.140625 893.542546,301.140625 L899.870671,301.140625 C909.766554,301.140625 917.696162,298.848981 923.659734,294.265625 C929.623305,289.682269 933.907117,282.703172 936.511296,273.328125 L939.401921,273.328125 L934.636296,307 L843.073796,307 L843.073796,304.109375 L846.589421,304.109375 C849.662353,304.109375 852.136287,303.5625 854.011296,302.46875 C855.36547,301.73958 856.407126,300.489592 857.136296,298.71875 C857.709216,297.468744 857.995671,294.187527 857.995671,288.875 L857.995671,219.1875 C857.995671,214.395809 857.865464,211.45313 857.605046,210.359375 C857.084211,208.536449 856.120678,207.130213 854.714421,206.140625 C852.735245,204.682284 850.026939,203.953125 846.589421,203.953125 L843.073796,203.953125 L843.073796,201.0625 L931.745671,201.0625 L931.745671,232.390625 L928.776921,232.390625 C927.266497,224.734337 925.144123,219.2396 922.409734,215.90625 C919.675345,212.5729 915.808196,210.125008 910.808171,208.5625 C907.89149,207.624995 902.422795,207.15625 894.401921,207.15625 L883.464421,207.15625 Z M991.251584,258.71875 L991.251584,288.40625 C991.251584,294.135445 991.603143,297.74218 992.306271,299.226562 C993.0094,300.710945 994.246366,301.895829 996.017209,302.78125 C997.788051,303.666671 1001.09531,304.109375 1005.93908,304.109375 L1005.93908,307 L951.720334,307 L951.720334,304.109375 C956.616191,304.109375 959.936471,303.65365 961.681271,302.742188 C963.426072,301.830725 964.650018,300.645841 965.353146,299.1875 C966.056275,297.729159 966.407834,294.135445 966.407834,288.40625 L966.407834,219.65625 C966.407834,213.927055 966.056275,210.32032 965.353146,208.835938 C964.650018,207.351555 963.413051,206.166671 961.642209,205.28125 C959.871366,204.395829 956.564108,203.953125 951.720334,203.953125 L951.720334,201.0625 L1000.93908,201.0625 C1013.75165,201.0625 1023.12655,201.947908 1029.06408,203.71875 C1035.00161,205.489592 1039.84531,208.757789 1043.59533,213.523438 C1047.34535,218.289086 1049.22033,223.874968 1049.22033,230.28125 C1049.22033,238.093789 1046.40786,244.552058 1040.78283,249.65625 C1037.18907,252.885433 1032.16307,255.307284 1025.70471,256.921875 L1051.17346,292.78125 C1054.50681,297.41669 1056.87658,300.307286 1058.28283,301.453125 C1060.41826,303.067716 1062.89219,303.953124 1065.70471,304.109375 L1065.70471,307 L1032.34533,307 L998.204709,258.71875 L991.251584,258.71875 Z M991.251584,206.765625 L991.251584,253.171875 L995.704709,253.171875 C1002.94433,253.171875 1008.36094,252.507819 1011.95471,251.179688 C1015.54848,249.851556 1018.37397,247.455746 1020.43127,243.992188 C1022.48857,240.528629 1023.51721,236.010445 1023.51721,230.4375 C1023.51721,222.364543 1021.62921,216.401061 1017.85315,212.546875 C1014.07709,208.692689 1007.99642,206.765625 999.610959,206.765625 L991.251584,206.765625 Z M1110.445,207.15625 L1110.445,250.671875 L1113.49187,250.671875 C1118.17939,250.671875 1122.00748,249.968757 1124.97625,248.5625 C1127.94501,247.156243 1130.45801,244.786475 1132.51531,241.453125 C1134.57261,238.119775 1135.91374,233.614612 1136.53875,227.9375 L1139.27312,227.9375 L1139.27312,281.140625 L1136.53875,281.140625 C1135.54916,271.088491 1132.85387,264.460954 1128.45281,261.257812 C1124.05174,258.054671 1119.06482,256.453125 1113.49187,256.453125 L1110.445,256.453125 L1110.445,288.875 C1110.445,294.291694 1110.74447,297.677077 1111.34343,299.03125 C1111.94239,300.385423 1113.11426,301.570307 1114.85906,302.585938 C1116.60386,303.601568 1118.96061,304.109375 1121.92937,304.109375 L1125.445,304.109375 L1125.445,307 L1070.05437,307 L1070.05437,304.109375 L1073.57,304.109375 C1076.64293,304.109375 1079.11686,303.5625 1080.99187,302.46875 C1082.34604,301.73958 1083.3877,300.489592 1084.11687,298.71875 C1084.68979,297.468744 1084.97625,294.187527 1084.97625,288.875 L1084.97625,219.1875 C1084.97625,213.770806 1084.68979,210.385423 1084.11687,209.03125 C1083.54395,207.677077 1082.38511,206.492193 1080.64031,205.476562 C1078.89551,204.460932 1076.53876,203.953125 1073.57,203.953125 L1070.05437,203.953125 L1070.05437,201.0625 L1159.42937,201.0625 L1159.42937,231.453125 L1156.22625,231.453125 C1155.49708,224.317673 1153.63511,219.031267 1150.64031,215.59375 C1147.6455,212.156233 1143.30961,209.734382 1137.6325,208.328125 C1134.50748,207.546871 1128.72629,207.15625 1120.28875,207.15625 L1110.445,207.15625 Z M1209.95091,207.15625 L1209.95091,250.28125 L1212.06028,250.28125 C1218.77907,250.28125 1223.64881,248.171896 1226.66966,243.953125 C1229.69051,239.734354 1231.61757,233.510458 1232.45091,225.28125 L1235.41966,225.28125 L1235.41966,280.75 L1232.45091,280.75 C1231.8259,274.708303 1230.51081,269.760436 1228.5056,265.90625 C1226.50038,262.052064 1224.16967,259.460944 1221.51341,258.132812 C1218.85714,256.804681 1215.00302,256.140625 1209.95091,256.140625 L1209.95091,285.984375 C1209.95091,291.817738 1210.1983,295.38541 1210.6931,296.6875 C1211.18789,297.98959 1212.11236,299.057288 1213.46653,299.890625 C1214.82071,300.723962 1217.00818,301.140625 1220.02903,301.140625 L1226.35716,301.140625 C1236.25304,301.140625 1244.18265,298.848981 1250.14622,294.265625 C1256.10979,289.682269 1260.3936,282.703172 1262.99778,273.328125 L1265.88841,273.328125 L1261.12278,307 L1169.56028,307 L1169.56028,304.109375 L1173.07591,304.109375 C1176.14884,304.109375 1178.62277,303.5625 1180.49778,302.46875 C1181.85196,301.73958 1182.89361,300.489592 1183.62278,298.71875 C1184.1957,297.468744 1184.48216,294.187527 1184.48216,288.875 L1184.48216,219.1875 C1184.48216,214.395809 1184.35195,211.45313 1184.09153,210.359375 C1183.5707,208.536449 1182.60716,207.130213 1181.20091,206.140625 C1179.22173,204.682284 1176.51343,203.953125 1173.07591,203.953125 L1169.56028,203.953125 L1169.56028,201.0625 L1258.23216,201.0625 L1258.23216,232.390625 L1255.26341,232.390625 C1253.75298,224.734337 1251.63061,219.2396 1248.89622,215.90625 C1246.16183,212.5729 1242.29468,210.125008 1237.29466,208.5625 C1234.37798,207.624995 1228.90928,207.15625 1220.88841,207.15625 L1209.95091,207.15625 Z M1382.03495,198.640625 L1382.03495,235.359375 L1378.98807,235.359375 C1376.69639,225.775994 1372.4256,218.432317 1366.17557,213.328125 C1359.92554,208.223933 1352.84228,205.671875 1344.92557,205.671875 C1338.31095,205.671875 1332.24331,207.572898 1326.72245,211.375 C1321.20158,215.177102 1317.16517,220.151011 1314.61307,226.296875 C1311.3318,234.161498 1309.6912,242.91141 1309.6912,252.546875 C1309.6912,262.026089 1310.8891,270.658815 1313.28495,278.445312 C1315.68079,286.23181 1319.43075,292.117168 1324.53495,296.101562 C1329.63914,300.085957 1336.25365,302.078125 1344.3787,302.078125 C1351.0454,302.078125 1357.1521,300.619806 1362.69901,297.703125 C1368.24591,294.786444 1374.09221,289.760452 1380.23807,282.625 L1380.23807,291.765625 C1374.30054,297.963573 1368.11571,302.455715 1361.68338,305.242188 C1355.25106,308.02866 1347.73811,309.421875 1339.14432,309.421875 C1327.84218,309.421875 1317.80322,307.156273 1309.02713,302.625 C1300.25105,298.093727 1293.48028,291.583376 1288.71463,283.09375 C1283.94898,274.604124 1281.5662,265.567756 1281.5662,255.984375 C1281.5662,245.880158 1284.2094,236.29692 1289.49588,227.234375 C1294.78237,218.17183 1301.91771,211.14065 1310.90213,206.140625 C1319.88655,201.1406 1329.43073,198.640625 1339.53495,198.640625 C1346.9829,198.640625 1354.8474,200.255192 1363.1287,203.484375 C1367.92039,205.359384 1370.96723,206.296875 1372.26932,206.296875 C1373.936,206.296875 1375.38129,205.684902 1376.60526,204.460938 C1377.82922,203.236973 1378.62348,201.296888 1378.98807,198.640625 L1382.03495,198.640625 Z M1493.88461,201.0625 L1493.88461,229.734375 L1491.07211,229.734375 C1489.40543,223.119759 1487.55649,218.367202 1485.52523,215.476562 C1483.49397,212.585923 1480.70754,210.281259 1477.16586,208.5625 C1475.18668,207.624995 1471.72317,207.15625 1466.77523,207.15625 L1458.88461,207.15625 L1458.88461,288.875 C1458.88461,294.291694 1459.18408,297.677077 1459.78304,299.03125 C1460.38201,300.385423 1461.55387,301.570307 1463.29867,302.585938 C1465.04347,303.601568 1467.42626,304.109375 1470.44711,304.109375 L1473.96273,304.109375 L1473.96273,307 L1418.49398,307 L1418.49398,304.109375 L1422.00961,304.109375 C1425.08254,304.109375 1427.55647,303.5625 1429.43148,302.46875 C1430.78566,301.73958 1431.85335,300.489592 1432.63461,298.71875 C1433.20753,297.468744 1433.49398,294.187527 1433.49398,288.875 L1433.49398,207.15625 L1425.83773,207.15625 C1418.70228,207.15625 1413.52004,208.666652 1410.29086,211.6875 C1405.75958,215.906271 1402.89503,221.921836 1401.69711,229.734375 L1398.72836,229.734375 L1398.72836,201.0625 L1493.88461,201.0625 Z M1688.02682,171.550781 L1688.02682,217.449219 L1684.21822,217.449219 C1681.35362,205.469992 1676.01514,196.290396 1668.2026,189.910156 C1660.39006,183.529916 1651.53598,180.339844 1641.6401,180.339844 C1633.37183,180.339844 1625.78727,182.716122 1618.88619,187.46875 C1611.98511,192.221378 1606.93959,198.438764 1603.74947,206.121094 C1599.64789,215.951872 1597.59713,226.889263 1597.59713,238.933594 C1597.59713,250.782611 1599.09451,261.573519 1602.08932,271.306641 C1605.08412,281.039762 1609.77158,288.396459 1616.15182,293.376953 C1622.53206,298.357447 1630.8002,300.847656 1640.9565,300.847656 C1649.28988,300.847656 1656.92327,299.024758 1663.85689,295.378906 C1670.79052,291.733055 1678.09839,285.450565 1685.78072,276.53125 L1685.78072,287.957031 C1678.35881,295.704466 1670.62777,301.319644 1662.58736,304.802734 C1654.54696,308.285825 1645.15578,310.027344 1634.41353,310.027344 C1620.28586,310.027344 1607.73716,307.195341 1596.76705,301.53125 C1585.79694,295.867159 1577.33349,287.72922 1571.37643,277.117188 C1565.41936,266.505155 1562.44088,255.209695 1562.44088,243.230469 C1562.44088,230.600197 1565.74488,218.62115 1572.35299,207.292969 C1578.96109,195.964787 1587.88028,187.175813 1599.1108,180.925781 C1610.34133,174.67575 1622.27154,171.550781 1634.90182,171.550781 C1644.21176,171.550781 1654.04239,173.56899 1664.394,177.605469 C1670.38362,179.94923 1674.19217,181.121094 1675.81978,181.121094 C1677.90313,181.121094 1679.70975,180.356127 1681.23971,178.826172 C1682.76966,177.296216 1683.76249,174.87111 1684.21822,171.550781 L1688.02682,171.550781 Z M1760.26077,304.109375 L1760.26077,307 L1704.87014,307 L1704.87014,304.109375 L1708.38577,304.109375 C1711.4587,304.109375 1713.93263,303.5625 1715.80764,302.46875 C1717.16182,301.73958 1718.20347,300.489592 1718.93264,298.71875 C1719.50556,297.468744 1719.79202,294.187527 1719.79202,288.875 L1719.79202,219.1875 C1719.79202,213.770806 1719.50556,210.385423 1718.93264,209.03125 C1718.35972,207.677077 1717.20088,206.492193 1715.45608,205.476562 C1713.71128,204.460932 1711.35453,203.953125 1708.38577,203.953125 L1704.87014,203.953125 L1704.87014,201.0625 L1760.26077,201.0625 L1760.26077,203.953125 L1756.74514,203.953125 C1753.67221,203.953125 1751.19828,204.499995 1749.32327,205.59375 C1747.9691,206.32292 1746.9014,207.572908 1746.12014,209.34375 C1745.54722,210.593756 1745.26077,213.874973 1745.26077,219.1875 L1745.26077,288.875 C1745.26077,294.291694 1745.56024,297.677077 1746.15921,299.03125 C1746.75817,300.385423 1747.93003,301.570307 1749.67483,302.585938 C1751.41963,303.601568 1753.77638,304.109375 1756.74514,304.109375 L1760.26077,304.109375 Z M1867.03231,201.0625 L1867.03231,229.734375 L1864.21981,229.734375 C1862.55313,223.119759 1860.70419,218.367202 1858.67293,215.476562 C1856.64167,212.585923 1853.85524,210.281259 1850.31356,208.5625 C1848.33438,207.624995 1844.87087,207.15625 1839.92293,207.15625 L1832.03231,207.15625 L1832.03231,288.875 C1832.03231,294.291694 1832.33178,297.677077 1832.93074,299.03125 C1833.5297,300.385423 1834.70157,301.570307 1836.44637,302.585938 C1838.19117,303.601568 1840.57396,304.109375 1843.59481,304.109375 L1847.11043,304.109375 L1847.11043,307 L1791.64168,307 L1791.64168,304.109375 L1795.15731,304.109375 C1798.23024,304.109375 1800.70417,303.5625 1802.57918,302.46875 C1803.93335,301.73958 1805.00105,300.489592 1805.78231,298.71875 C1806.35523,297.468744 1806.64168,294.187527 1806.64168,288.875 L1806.64168,207.15625 L1798.98543,207.15625 C1791.84998,207.15625 1786.66774,208.666652 1783.43856,211.6875 C1778.90728,215.906271 1776.04273,221.921836 1774.84481,229.734375 L1771.87606,229.734375 L1771.87606,201.0625 L1867.03231,201.0625 Z M1917.47572,258.71875 L1917.47572,288.40625 C1917.47572,294.135445 1917.82728,297.74218 1918.53041,299.226562 C1919.23353,300.710945 1920.4705,301.895829 1922.24134,302.78125 C1924.01219,303.666671 1927.31944,304.109375 1932.16322,304.109375 L1932.16322,307 L1877.94447,307 L1877.94447,304.109375 C1882.84033,304.109375 1886.16061,303.65365 1887.90541,302.742188 C1889.65021,301.830725 1890.87415,300.645841 1891.57728,299.1875 C1892.28041,297.729159 1892.63197,294.135445 1892.63197,288.40625 L1892.63197,219.65625 C1892.63197,213.927055 1892.28041,210.32032 1891.57728,208.835938 C1890.87415,207.351555 1889.63719,206.166671 1887.86634,205.28125 C1886.0955,204.395829 1882.78824,203.953125 1877.94447,203.953125 L1877.94447,201.0625 L1927.16322,201.0625 C1939.97578,201.0625 1949.35069,201.947908 1955.28822,203.71875 C1961.22575,205.489592 1966.06945,208.757789 1969.81947,213.523438 C1973.56949,218.289086 1975.44447,223.874968 1975.44447,230.28125 C1975.44447,238.093789 1972.632,244.552058 1967.00697,249.65625 C1963.4132,252.885433 1958.38721,255.307284 1951.92884,256.921875 L1977.39759,292.78125 C1980.73094,297.41669 1983.10071,300.307286 1984.50697,301.453125 C1986.6424,303.067716 1989.11633,303.953124 1991.92884,304.109375 L1991.92884,307 L1958.56947,307 L1924.42884,258.71875 L1917.47572,258.71875 Z M1917.47572,206.765625 L1917.47572,253.171875 L1921.92884,253.171875 C1929.16846,253.171875 1934.58507,252.507819 1938.17884,251.179688 C1941.77261,249.851556 1944.5981,247.455746 1946.65541,243.992188 C1948.71271,240.528629 1949.74134,236.010445 1949.74134,230.4375 C1949.74134,222.364543 1947.85334,216.401061 1944.07728,212.546875 C1940.30122,208.692689 1934.22055,206.765625 1925.83509,206.765625 L1917.47572,206.765625 Z M1996.43476,201.0625 L2051.12226,201.0625 L2051.12226,203.953125 L2048.38788,203.953125 C2044.27328,203.953125 2041.44778,204.382808 2039.91132,205.242188 C2038.37485,206.101567 2037.28111,207.286451 2036.63007,208.796875 C2035.97902,210.307299 2035.65351,214.083303 2035.65351,220.125 L2035.65351,272 C2035.65351,281.479214 2036.36964,287.755193 2037.80194,290.828125 C2039.23424,293.901057 2041.59099,296.453115 2044.87226,298.484375 C2048.15352,300.515635 2052.29411,301.53125 2057.29413,301.53125 C2063.02333,301.53125 2067.90609,300.2422 2071.94257,297.664062 C2075.97905,295.085925 2078.99985,291.531273 2081.00507,287 C2083.01029,282.468727 2084.01288,274.578181 2084.01288,263.328125 L2084.01288,220.125 C2084.01288,215.385393 2083.51809,212.00001 2082.52851,209.96875 C2081.53892,207.93749 2080.28893,206.531254 2078.77851,205.75 C2076.43474,204.552077 2073.12748,203.953125 2068.85663,203.953125 L2068.85663,201.0625 L2105.49726,201.0625 L2105.49726,203.953125 L2103.30976,203.953125 C2100.34099,203.953125 2097.86706,204.552077 2095.88788,205.75 C2093.9087,206.947923 2092.47643,208.74478 2091.59101,211.140625 C2090.91392,212.8073 2090.57538,215.802062 2090.57538,220.125 L2090.57538,260.359375 C2090.57538,272.807354 2089.75508,281.791639 2088.11444,287.3125 C2086.47381,292.833361 2082.47645,297.911435 2076.12226,302.546875 C2069.76806,307.182315 2061.09627,309.5 2050.10663,309.5 C2040.93992,309.5 2033.85666,308.276054 2028.85663,305.828125 C2022.03368,302.494775 2017.21602,298.223984 2014.40351,293.015625 C2011.59099,287.807266 2010.18476,280.802127 2010.18476,272 L2010.18476,220.125 C2010.18476,214.03122 2009.84622,210.242195 2009.16913,208.757812 C2008.49204,207.27343 2007.32018,206.088546 2005.65351,205.203125 C2003.98683,204.317704 2000.91394,203.901041 1996.43476,203.953125 L1996.43476,201.0625 Z M2185.55004,198.640625 L2186.40942,233.953125 L2183.20629,233.953125 C2181.69587,225.098914 2177.98497,217.976589 2172.07348,212.585938 C2166.16199,207.195286 2159.76883,204.5 2152.89379,204.5 C2147.58127,204.5 2143.37558,205.919257 2140.2766,208.757812 C2137.17763,211.596368 2135.62817,214.864565 2135.62817,218.5625 C2135.62817,220.906262 2136.17504,222.989574 2137.26879,224.8125 C2138.77922,227.260429 2141.20107,229.68228 2144.53442,232.078125 C2146.98235,233.796884 2152.63333,236.843728 2161.48754,241.21875 C2173.88344,247.31253 2182.24273,253.067681 2186.56567,258.484375 C2190.83652,263.901069 2192.97192,270.098923 2192.97192,277.078125 C2192.97192,285.932336 2189.52143,293.549447 2182.62035,299.929688 C2175.71928,306.309928 2166.95635,309.5 2156.33129,309.5 C2152.99794,309.5 2149.84693,309.161462 2146.87817,308.484375 C2143.9094,307.807288 2140.18548,306.531259 2135.70629,304.65625 C2133.20628,303.614578 2131.14901,303.09375 2129.53442,303.09375 C2128.18024,303.09375 2126.74797,303.614578 2125.23754,304.65625 C2123.72712,305.697922 2122.50317,307.286448 2121.56567,309.421875 L2118.67504,309.421875 L2118.67504,269.421875 L2121.56567,269.421875 C2123.85735,280.671931 2128.27136,289.252575 2134.80785,295.164062 C2141.34435,301.07555 2148.38855,304.03125 2155.94067,304.03125 C2161.77403,304.03125 2166.42242,302.442724 2169.88598,299.265625 C2173.34954,296.088526 2175.08129,292.390646 2175.08129,288.171875 C2175.08129,285.671862 2174.41724,283.250012 2173.0891,280.90625 C2171.76097,278.562488 2169.74276,276.335948 2167.03442,274.226562 C2164.32607,272.117177 2159.53445,269.369809 2152.65942,265.984375 C2143.02395,261.244768 2136.09694,257.20835 2131.87817,253.875 C2127.6594,250.54165 2124.41724,246.817729 2122.1516,242.703125 C2119.88597,238.588521 2118.75317,234.057316 2118.75317,229.109375 C2118.75317,220.671833 2121.85209,213.484405 2128.05004,207.546875 C2134.24799,201.609345 2142.06041,198.640625 2151.48754,198.640625 C2154.92506,198.640625 2158.25836,199.057288 2161.48754,199.890625 C2163.93547,200.515628 2166.91721,201.674471 2170.43285,203.367188 C2173.9485,205.059904 2176.40941,205.90625 2177.81567,205.90625 C2179.16984,205.90625 2180.23754,205.489587 2181.01879,204.65625 C2181.80005,203.822912 2182.52921,201.817724 2183.20629,198.640625 L2185.55004,198.640625 Z" id="PERFECTCITRUS" fill="#FF9803" fill-rule="nonzero"></path>
                        <path d="M742.8,365.2 L765.9,365.2 C769.966687,365.2 773.633317,365.566663 776.9,366.3 C780.166683,367.033337 782.966655,368.233325 785.3,369.9 C787.633345,371.566675 789.433327,373.699987 790.7,376.3 C791.966673,378.900013 792.6,382.033315 792.6,385.7 C792.6,389.633353 791.866674,392.93332 790.4,395.6 C788.933326,398.26668 786.950013,400.416659 784.45,402.05 C781.949988,403.683341 779.03335,404.866663 775.7,405.6 C772.36665,406.333337 768.833352,406.7 765.1,406.7 L755.4,406.7 L755.4,436 L742.8,436 L742.8,365.2 Z M764.2,396.1 C766.266677,396.1 768.233324,395.950001 770.1,395.65 C771.966676,395.349998 773.633326,394.81667 775.1,394.05 C776.566674,393.28333 777.733329,392.23334 778.6,390.9 C779.466671,389.56666 779.9,387.833344 779.9,385.7 C779.9,383.633323 779.466671,381.950006 778.6,380.65 C777.733329,379.349993 776.583341,378.333337 775.15,377.6 C773.71666,376.866663 772.083343,376.383334 770.25,376.15 C768.416658,375.916666 766.533343,375.8 764.6,375.8 L755.4,375.8 L755.4,396.1 L764.2,396.1 Z M828.751351,429.9 L828.451351,429.9 C827.251345,432.033344 825.318031,433.783326 822.651351,435.15 C819.984671,436.516674 816.951368,437.2 813.551351,437.2 C811.618008,437.2 809.601362,436.950002 807.501351,436.45 C805.401341,435.949997 803.468027,435.116672 801.701351,433.95 C799.934676,432.783327 798.468024,431.25001 797.301351,429.35 C796.134679,427.449991 795.551351,425.100014 795.551351,422.3 C795.551351,418.699982 796.568008,415.833344 798.601351,413.7 C800.634695,411.566656 803.251335,409.933339 806.451351,408.8 C809.651367,407.666661 813.201332,406.916669 817.101351,406.55 C821.001371,406.183332 824.817999,406 828.551351,406 L828.551351,404.8 C828.551351,401.799985 827.468029,399.583341 825.301351,398.15 C823.134674,396.716659 820.551366,396 817.551351,396 C815.018005,396 812.584696,396.533328 810.251351,397.6 C807.918006,398.666672 805.984692,399.966659 804.451351,401.5 L798.251351,394.2 C800.984698,391.666654 804.134667,389.766673 807.701351,388.5 C811.268036,387.233327 814.884666,386.6 818.551351,386.6 C822.818039,386.6 826.334671,387.199994 829.101351,388.4 C831.868032,389.6 834.051351,391.166657 835.651351,393.1 C837.251359,395.033343 838.368015,397.199988 839.001351,399.6 C839.634688,402.000012 839.951351,404.399988 839.951351,406.8 L839.951351,436 L828.751351,436 L828.751351,429.9 Z M828.551351,414.1 L825.851351,414.1 C823.918008,414.1 821.884695,414.183333 819.751351,414.35 C817.618007,414.516667 815.65136,414.88333 813.851351,415.45 C812.051351,416.01667 810.551351,416.816662 809.351351,417.85 C808.151345,418.883339 807.551351,420.299991 807.551351,422.1 C807.551351,423.233339 807.801349,424.18333 808.301351,424.95 C808.801354,425.71667 809.451347,426.333331 810.251351,426.8 C811.051351,427.266669 811.951346,427.6 812.951351,427.8 C813.951356,428.000001 814.951346,428.1 815.951351,428.1 C820.084705,428.1 823.218007,427.000011 825.351351,424.8 C827.484695,422.599989 828.551351,419.600019 828.551351,415.8 L828.551351,414.1 Z M855.302703,388 L866.702703,388 L866.702703,395.7 L866.902703,395.7 C867.969375,393.299988 869.819356,391.183342 872.452703,389.35 C875.086049,387.516658 878.202685,386.6 881.802703,386.6 C884.936052,386.6 887.619358,387.149994 889.852703,388.25 C892.086047,389.350006 893.919362,390.799991 895.352703,392.6 C896.786043,394.400009 897.836033,396.466655 898.502703,398.8 C899.169373,401.133345 899.502703,403.533321 899.502703,406 L899.502703,436 L887.502703,436 L887.502703,409.4 C887.502703,407.999993 887.402704,406.533341 887.202703,405 C887.002702,403.466659 886.569373,402.083339 885.902703,400.85 C885.236033,399.61666 884.319375,398.6 883.152703,397.8 C881.98603,396.999996 880.436046,396.6 878.502703,396.6 C876.56936,396.6 874.90271,396.983329 873.502703,397.75 C872.102696,398.516671 870.952707,399.499994 870.052703,400.7 C869.152698,401.900006 868.469372,403.283325 868.002703,404.85 C867.536034,406.416674 867.302703,407.999992 867.302703,409.6 L867.302703,436 L855.302703,436 L855.302703,388 Z M907.954054,397.6 L907.954054,388 L916.354054,388 L916.354054,374.1 L928.154054,374.1 L928.154054,388 L940.154054,388 L940.154054,397.6 L928.154054,397.6 L928.154054,419.9 C928.154054,422.033344 928.537384,423.799993 929.304054,425.2 C930.070725,426.6 931.787374,427.3 934.454054,427.3 C935.254058,427.3 936.120716,427.216667 937.054054,427.05 C937.987392,426.883332 938.820717,426.633335 939.554054,426.3 L939.954054,435.7 C938.887382,436.1 937.620728,436.416666 936.154054,436.65 C934.68738,436.883334 933.287394,437 931.954054,437 C928.754038,437 926.154064,436.550005 924.154054,435.65 C922.154044,434.749996 920.570727,433.516675 919.404054,431.95 C918.237382,430.383325 917.43739,428.583343 917.004054,426.55 C916.570719,424.516657 916.354054,422.333345 916.354054,420 L916.354054,397.6 L907.954054,397.6 Z M947.405405,411.8 C947.405405,407.999981 948.088732,404.550015 949.455405,401.45 C950.822079,398.349985 952.67206,395.700011 955.005405,393.5 C957.33875,391.299989 960.105389,389.6 963.305405,388.4 C966.505421,387.199994 969.905387,386.6 973.505405,386.6 C977.105423,386.6 980.505389,387.199994 983.705405,388.4 C986.905421,389.6 989.67206,391.299989 992.005405,393.5 C994.33875,395.700011 996.188732,398.349985 997.555405,401.45 C998.922079,404.550015 999.605405,407.999981 999.605405,411.8 C999.605405,415.600019 998.922079,419.066651 997.555405,422.2 C996.188732,425.333349 994.33875,428.016656 992.005405,430.25 C989.67206,432.483344 986.905421,434.233327 983.705405,435.5 C980.505389,436.766673 977.105423,437.4 973.505405,437.4 C969.905387,437.4 966.505421,436.766673 963.305405,435.5 C960.105389,434.233327 957.33875,432.483344 955.005405,430.25 C952.67206,428.016656 950.822079,425.333349 949.455405,422.2 C948.088732,419.066651 947.405405,415.600019 947.405405,411.8 Z M959.605405,411.8 C959.605405,413.666676 959.888736,415.533324 960.455405,417.4 C961.022075,419.266676 961.872066,420.933326 963.005405,422.4 C964.138744,423.866674 965.572063,425.066662 967.305405,426 C969.038747,426.933338 971.105393,427.4 973.505405,427.4 C975.905417,427.4 977.972063,426.933338 979.705405,426 C981.438747,425.066662 982.872066,423.866674 984.005405,422.4 C985.138744,420.933326 985.988736,419.266676 986.555405,417.4 C987.122075,415.533324 987.405405,413.666676 987.405405,411.8 C987.405405,409.933324 987.122075,408.083343 986.555405,406.25 C985.988736,404.416658 985.138744,402.766674 984.005405,401.3 C982.872066,399.833326 981.438747,398.650005 979.705405,397.75 C977.972063,396.849995 975.905417,396.4 973.505405,396.4 C971.105393,396.4 969.038747,396.849995 967.305405,397.75 C965.572063,398.650005 964.138744,399.833326 963.005405,401.3 C961.872066,402.766674 961.022075,404.416658 960.455405,406.25 C959.888736,408.083343 959.605405,409.933324 959.605405,411.8 Z M1012.55676,388 L1023.95676,388 L1023.95676,395.7 L1024.15676,395.7 C1025.22343,393.299988 1027.07341,391.183342 1029.70676,389.35 C1032.3401,387.516658 1035.45674,386.6 1039.05676,386.6 C1042.19011,386.6 1044.87341,387.149994 1047.10676,388.25 C1049.3401,389.350006 1051.17342,390.799991 1052.60676,392.6 C1054.0401,394.400009 1055.09009,396.466655 1055.75676,398.8 C1056.42343,401.133345 1056.75676,403.533321 1056.75676,406 L1056.75676,436 L1044.75676,436 L1044.75676,409.4 C1044.75676,407.999993 1044.65676,406.533341 1044.45676,405 C1044.25676,403.466659 1043.82343,402.083339 1043.15676,400.85 C1042.49009,399.61666 1041.57343,398.6 1040.40676,397.8 C1039.24008,396.999996 1037.6901,396.6 1035.75676,396.6 C1033.82341,396.6 1032.15676,396.983329 1030.75676,397.75 C1029.35675,398.516671 1028.20676,399.499994 1027.30676,400.7 C1026.40675,401.900006 1025.72343,403.283325 1025.25676,404.85 C1024.79009,406.416674 1024.55676,407.999992 1024.55676,409.6 L1024.55676,436 L1012.55676,436 L1012.55676,388 Z M1105.90811,407.2 C1105.90811,405.666659 1105.69144,404.200007 1105.25811,402.8 C1104.82477,401.399993 1104.14145,400.166672 1103.20811,399.1 C1102.27477,398.033328 1101.09145,397.183336 1099.65811,396.55 C1098.22477,395.916664 1096.54145,395.6 1094.60811,395.6 C1091.00809,395.6 1087.95812,396.683323 1085.45811,398.85 C1082.9581,401.016678 1081.57478,403.799983 1081.30811,407.2 L1105.90811,407.2 Z M1117.90811,412.6 L1117.90811,414.2 C1117.90811,414.733336 1117.87478,415.266664 1117.80811,415.8 L1081.30811,415.8 C1081.44144,417.533342 1081.89144,419.116659 1082.65811,420.55 C1083.42478,421.98334 1084.44144,423.216661 1085.70811,424.25 C1086.97478,425.283339 1088.4081,426.1 1090.00811,426.7 C1091.60812,427.300003 1093.27477,427.6 1095.00811,427.6 C1098.00812,427.6 1100.54143,427.050005 1102.60811,425.95 C1104.67479,424.849994 1106.37477,423.333343 1107.70811,421.4 L1115.70811,427.8 C1110.97475,434.200032 1104.10815,437.4 1095.10811,437.4 C1091.37476,437.4 1087.94146,436.816672 1084.80811,435.65 C1081.67476,434.483327 1078.95812,432.833344 1076.65811,430.7 C1074.3581,428.566656 1072.55811,425.950016 1071.25811,422.85 C1069.9581,419.749984 1069.30811,416.233353 1069.30811,412.3 C1069.30811,408.433314 1069.9581,404.916682 1071.25811,401.75 C1072.55811,398.583318 1074.34143,395.883345 1076.60811,393.65 C1078.87479,391.416655 1081.55809,389.683339 1084.65811,388.45 C1087.75812,387.21666 1091.10809,386.6 1094.70811,386.6 C1098.04146,386.6 1101.12476,387.149994 1103.95811,388.25 C1106.79146,389.350006 1109.24143,390.983322 1111.30811,393.15 C1113.37479,395.316678 1114.99144,398.01665 1116.15811,401.25 C1117.32478,404.48335 1117.90811,408.266645 1117.90811,412.6 Z M1177.91081,379.8 L1163.91081,391.3 L1156.91081,383 L1179.01081,365.2 L1189.91081,365.2 L1189.91081,436 L1177.91081,436 L1177.91081,379.8 Z M1233.56216,394.3 L1236.76216,394.3 C1238.56217,394.3 1240.34549,394.150002 1242.11216,393.85 C1243.87884,393.549999 1245.49549,393.000004 1246.96216,392.2 C1248.42884,391.4 1249.61216,390.316673 1250.51216,388.95 C1251.41217,387.583326 1251.86216,385.800011 1251.86216,383.6 C1251.86216,381.999992 1251.56217,380.566673 1250.96216,379.3 C1250.36216,378.033327 1249.5455,376.966671 1248.51216,376.1 C1247.47882,375.233329 1246.27884,374.566669 1244.91216,374.1 C1243.54549,373.633331 1242.12884,373.4 1240.66216,373.4 C1237.72881,373.4 1235.29551,374.233325 1233.36216,375.9 C1231.42882,377.566675 1230.0955,379.766653 1229.36216,382.5 L1218.06216,379.6 C1218.66217,377.199988 1219.67882,375.016677 1221.11216,373.05 C1222.5455,371.083324 1224.27882,369.383341 1226.31216,367.95 C1228.34551,366.51666 1230.62882,365.4 1233.16216,364.6 C1235.69551,363.799996 1238.36215,363.4 1241.16216,363.4 C1244.22884,363.4 1247.14548,363.816663 1249.91216,364.65 C1252.67884,365.483337 1255.11215,366.716658 1257.21216,368.35 C1259.31217,369.983341 1260.96216,371.999988 1262.16216,374.4 C1263.36217,376.800012 1263.96216,379.599984 1263.96216,382.8 C1263.96216,386.600019 1262.81217,389.983318 1260.51216,392.95 C1258.21215,395.916681 1255.12885,397.866662 1251.26216,398.8 L1251.26216,399 C1255.59552,399.866671 1259.11215,401.816652 1261.81216,404.85 C1264.51218,407.883349 1265.86216,411.599978 1265.86216,416 C1265.86216,419.666685 1265.1455,422.866653 1263.71216,425.6 C1262.27882,428.333347 1260.37884,430.599991 1258.01216,432.4 C1255.64548,434.200009 1252.99551,435.549996 1250.06216,436.45 C1247.12881,437.350005 1244.16218,437.8 1241.16216,437.8 C1238.16215,437.8 1235.32884,437.483337 1232.66216,436.85 C1229.99548,436.216663 1227.54551,435.23334 1225.31216,433.9 C1223.07882,432.56666 1221.11217,430.833344 1219.41216,428.7 C1217.71215,426.566656 1216.3955,424.033348 1215.46216,421.1 L1226.66216,417.6 C1227.52883,420.400014 1229.14548,422.766657 1231.51216,424.7 C1233.87884,426.633343 1236.96214,427.6 1240.76216,427.6 C1242.2955,427.6 1243.84549,427.383335 1245.41216,426.95 C1246.97884,426.516664 1248.37882,425.833338 1249.61216,424.9 C1250.8455,423.966662 1251.84549,422.766674 1252.61216,421.3 C1253.37883,419.833326 1253.76216,418.033344 1253.76216,415.9 C1253.76216,413.633322 1253.21217,411.716675 1252.11216,410.15 C1251.01216,408.583326 1249.62884,407.350004 1247.96216,406.45 C1246.29549,405.549996 1244.44551,404.9 1242.41216,404.5 C1240.37882,404.099998 1238.42884,403.9 1236.56216,403.9 L1233.56216,403.9 L1233.56216,394.3 Z M1279.81351,365.2 L1327.91351,365.2 L1327.91351,376.2 L1299.61351,436 L1285.51351,436 L1315.31351,376 L1279.81351,376 L1279.81351,365.2 Z M1387.56486,376 L1358.66486,376 L1357.96486,391.3 C1359.0982,390.966665 1360.44819,390.733334 1362.01486,390.6 C1363.58154,390.466666 1364.99819,390.4 1366.26486,390.4 C1369.73155,390.4 1372.94818,390.899995 1375.91486,391.9 C1378.88155,392.900005 1381.46485,394.34999 1383.66486,396.25 C1385.86488,398.15001 1387.58153,400.483319 1388.81486,403.25 C1390.0482,406.016681 1390.66486,409.199982 1390.66486,412.8 C1390.66486,416.733353 1389.98154,420.249984 1388.61486,423.35 C1387.24819,426.450016 1385.39821,429.066656 1383.06486,431.2 C1380.73152,433.333344 1377.99821,434.966661 1374.86486,436.1 C1371.73152,437.233339 1368.39822,437.8 1364.86486,437.8 C1358.9315,437.8 1353.93155,436.41668 1349.86486,433.65 C1345.79818,430.883319 1342.83154,427.100024 1340.96486,422.3 L1351.86486,418.3 C1352.86487,421.100014 1354.53152,423.349991 1356.86486,425.05 C1359.19821,426.750009 1361.96485,427.6 1365.16486,427.6 C1366.96486,427.6 1368.66486,427.300003 1370.26486,426.7 C1371.86487,426.099997 1373.26486,425.233339 1374.46486,424.1 C1375.66487,422.966661 1376.61486,421.550008 1377.31486,419.85 C1378.01487,418.149991 1378.36486,416.233344 1378.36486,414.1 C1378.36486,411.366653 1377.8982,409.100009 1376.96486,407.3 C1376.03153,405.499991 1374.81487,404.050005 1373.31486,402.95 C1371.81486,401.849994 1370.13154,401.083335 1368.26486,400.65 C1366.39819,400.216664 1364.49821,400 1362.56486,400 C1361.23152,400 1359.81487,400.099999 1358.31486,400.3 C1356.81486,400.500001 1355.34821,400.783332 1353.91486,401.15 C1352.48152,401.516668 1351.08154,401.933331 1349.71486,402.4 C1348.34819,402.866669 1347.13154,403.366664 1346.06486,403.9 L1347.26486,365.2 L1387.56486,365.2 L1387.56486,376 Z M1439.41622,401.3 C1438.48288,399.96666 1437.08289,398.850005 1435.21622,397.95 C1433.34954,397.049996 1431.44956,396.6 1429.51622,396.6 C1427.31621,396.6 1425.38289,397.049996 1423.71622,397.95 C1422.04954,398.850005 1420.66622,400.033326 1419.56622,401.5 C1418.46621,402.966674 1417.64955,404.616657 1417.11622,406.45 C1416.58288,408.283343 1416.31622,410.133324 1416.31622,412 C1416.31622,413.866676 1416.59955,415.716657 1417.16622,417.55 C1417.73289,419.383343 1418.58288,421.033326 1419.71622,422.5 C1420.84956,423.966674 1422.26621,425.149995 1423.96622,426.05 C1425.66622,426.950004 1427.64954,427.4 1429.91622,427.4 C1431.78289,427.4 1433.64954,427.033337 1435.51622,426.3 C1437.38289,425.566663 1438.88288,424.500007 1440.01622,423.1 L1447.51622,430.7 C1445.51621,432.833344 1442.96623,434.483327 1439.86622,435.65 C1436.7662,436.816672 1433.41623,437.4 1429.81622,437.4 C1426.28287,437.4 1422.9329,436.833339 1419.76622,435.7 C1416.59953,434.566661 1413.83289,432.900011 1411.46622,430.7 C1409.09954,428.499989 1407.23289,425.833349 1405.86622,422.7 C1404.49954,419.566651 1403.81622,416.00002 1403.81622,412 C1403.81622,408.133314 1404.49954,404.633349 1405.86622,401.5 C1407.23289,398.366651 1409.08287,395.700011 1411.41622,393.5 C1413.74956,391.299989 1416.4662,389.6 1419.56622,388.4 C1422.66623,387.199994 1425.98287,386.6 1429.51622,386.6 C1433.04957,386.6 1436.4662,387.26666 1439.76622,388.6 C1443.06623,389.93334 1445.68287,391.766655 1447.61622,394.1 L1439.41622,401.3 Z" id="Pantone1375c" fill="#4D4D4D" fill-rule="nonzero"></path>
                    </g>
                </g>
            </g>
        </g>
    </g>
</svg>