<?xml version="1.0" encoding="UTF-8"?>
<svg width="2209px" height="620px" viewBox="0 0 2209 620" version="1.1" xmlns="http://www.w3.org/2000/svg" xmlns:xlink="http://www.w3.org/1999/xlink">
    <!-- Generator: Sketch 57.1 (83088) - https://sketch.com -->
    <title>Group 27</title>
    <desc>Created with Sketch.</desc>
    <g id="Page-1" stroke="none" stroke-width="1" fill="none" fill-rule="evenodd">
        <g id="Proposal" transform="translate(-167107.000000, -19104.000000)">
            <g id="Group-27" transform="translate(167107.000000, 19104.000000)">
                <rect id="Rectangle" fill="#FFFFFF" x="0" y="0" width="2209" height="620"></rect>
                <g id="color3">
                    <circle id="Oval" fill="#FF2424" cx="307.5" cy="307.5" r="307.5"></circle>
                    <path d="M769.980469,182.195312 L769.980469,236.589844 L773.789062,236.589844 C779.648467,236.589844 784.433575,235.710946 788.144531,233.953125 C791.855487,232.195304 794.996732,229.233094 797.568359,225.066406 C800.139987,220.899719 801.816402,215.268265 802.597656,208.171875 L806.015625,208.171875 L806.015625,274.675781 L802.597656,274.675781 C801.360671,262.110614 797.991564,253.826192 792.490234,249.822266 C786.988905,245.818339 780.755243,243.816406 773.789062,243.816406 L769.980469,243.816406 L769.980469,284.34375 C769.980469,291.114617 770.354814,295.346346 771.103516,297.039062 C771.852217,298.731779 773.317046,300.212884 775.498047,301.482422 C777.679047,302.751959 780.624981,303.386719 784.335938,303.386719 L788.730469,303.386719 L788.730469,307 L719.492188,307 L719.492188,303.386719 L723.886719,303.386719 C727.727884,303.386719 730.820301,302.703132 733.164062,301.335938 C734.856779,300.424475 736.15885,298.86199 737.070312,296.648438 C737.786462,295.08593 738.144531,290.984408 738.144531,284.34375 L738.144531,197.234375 C738.144531,190.463508 737.786462,186.231779 737.070312,184.539062 C736.354163,182.846346 734.90561,181.365241 732.724609,180.095703 C730.543609,178.826166 727.597675,178.191406 723.886719,178.191406 L719.492188,178.191406 L719.492188,174.578125 L831.210938,174.578125 L831.210938,212.566406 L827.207031,212.566406 C826.295568,203.647091 823.968118,197.039084 820.224609,192.742188 C816.481101,188.445291 811.061233,185.417978 803.964844,183.660156 C800.058574,182.683589 792.832084,182.195312 782.285156,182.195312 L769.980469,182.195312 Z M940.886296,269.8125 L936.901921,307 L842.839421,307 L842.839421,304.109375 L846.355046,304.109375 C849.427978,304.109375 851.901912,303.5625 853.776921,302.46875 C855.131095,301.73958 856.172751,300.489592 856.901921,298.71875 C857.474841,297.468744 857.761296,294.187527 857.761296,288.875 L857.761296,219.1875 C857.761296,213.770806 857.474841,210.385423 856.901921,209.03125 C856.329002,207.677077 855.170159,206.492193 853.425359,205.476562 C851.680559,204.460932 849.323811,203.953125 846.355046,203.953125 L842.839421,203.953125 L842.839421,201.0625 L899.323796,201.0625 L899.323796,203.953125 L894.714421,203.953125 C891.641489,203.953125 889.167556,204.499995 887.292546,205.59375 C885.938373,206.32292 884.870675,207.572908 884.089421,209.34375 C883.516502,210.593756 883.230046,213.874973 883.230046,219.1875 L883.230046,286.6875 C883.230046,292.104194 883.542543,295.55468 884.167546,297.039062 C884.79255,298.523445 886.016496,299.630205 887.839421,300.359375 C889.141511,300.828127 892.292521,301.0625 897.292546,301.0625 L906.120671,301.0625 C911.7457,301.0625 916.433153,300.072927 920.183171,298.09375 C923.93319,296.114573 927.175345,292.989605 929.909734,288.71875 C932.644123,284.447895 935.235243,278.145875 937.683171,269.8125 L940.886296,269.8125 Z M1015.31408,276.84375 L977.892209,276.84375 L973.439084,287.15625 C971.980743,290.593767 971.251584,293.43228 971.251584,295.671875 C971.251584,298.64064 972.449488,300.828118 974.845334,302.234375 C976.251591,303.067712 979.715098,303.692706 985.235959,304.109375 L985.235959,307 L950.001584,307 L950.001584,304.109375 C953.803686,303.536455 956.928655,301.96095 959.376584,299.382812 C961.824513,296.804675 964.845316,291.479207 968.439084,283.40625 L1006.32971,198.875 L1007.81408,198.875 L1046.01721,285.75 C1049.66306,293.979208 1052.65782,299.161448 1055.00158,301.296875 C1056.77243,302.911466 1059.2724,303.848957 1062.50158,304.109375 L1062.50158,307 L1011.25158,307 L1011.25158,304.109375 L1013.36096,304.109375 C1017.47556,304.109375 1020.36616,303.536464 1022.03283,302.390625 C1023.17867,301.557288 1023.75158,300.359383 1023.75158,298.796875 C1023.75158,297.85937 1023.59534,296.895838 1023.28283,295.90625 C1023.17867,295.437498 1022.39742,293.484392 1020.93908,290.046875 L1015.31408,276.84375 Z M1012.65783,271.0625 L996.876584,234.578125 L980.626584,271.0625 L1012.65783,271.0625 Z M1207.32,201.0625 L1207.32,203.953125 C1205.34082,204.109376 1203.67417,204.656245 1202.32,205.59375 C1200.96582,206.531255 1199.76792,207.963532 1198.72625,209.890625 C1198.41374,210.515628 1196.77314,214.552046 1193.80437,222 L1160.60125,309.421875 L1157.55437,309.421875 L1131.30437,241.140625 L1102.39812,309.421875 L1099.5075,309.421875 L1064.66375,222.9375 C1061.12206,214.23954 1058.64813,208.979176 1057.24187,207.15625 C1055.83561,205.333324 1053.46585,204.265627 1050.1325,203.953125 L1050.1325,201.0625 L1096.07,201.0625 L1096.07,203.953125 C1092.37206,204.057292 1089.91115,204.617182 1088.68718,205.632812 C1087.46322,206.648443 1086.85125,207.911451 1086.85125,209.421875 C1086.85125,211.401052 1088.12727,215.593718 1090.67937,222 L1111.46062,273.40625 L1128.10125,233.25 L1123.72625,222 C1121.3304,215.854136 1119.48146,211.752614 1118.17937,209.695312 C1116.87728,207.638011 1115.3799,206.166671 1113.68718,205.28125 C1111.99447,204.395829 1109.50751,203.953125 1106.22625,203.953125 L1106.22625,201.0625 L1157.55437,201.0625 L1157.55437,203.953125 C1153.9606,204.005209 1151.3825,204.291664 1149.82,204.8125 C1148.72624,205.177085 1147.86687,205.789058 1147.24187,206.648438 C1146.61687,207.507817 1146.30437,208.48437 1146.30437,209.578125 C1146.30437,210.776048 1147.47623,214.447886 1149.82,220.59375 L1169.11687,270.75 L1186.3825,225.359375 C1188.20542,220.671852 1189.3252,217.468759 1189.74187,215.75 C1190.15854,214.031241 1190.36687,212.442716 1190.36687,210.984375 C1190.36687,208.848948 1189.63771,207.169277 1188.17937,205.945312 C1186.72103,204.721348 1183.9346,204.057292 1179.82,203.953125 L1179.82,201.0625 L1207.32,201.0625 Z M1311.90403,269.8125 L1307.91966,307 L1213.85716,307 L1213.85716,304.109375 L1217.37278,304.109375 C1220.44571,304.109375 1222.91965,303.5625 1224.79466,302.46875 C1226.14883,301.73958 1227.19049,300.489592 1227.91966,298.71875 C1228.49258,297.468744 1228.77903,294.187527 1228.77903,288.875 L1228.77903,219.1875 C1228.77903,213.770806 1228.49258,210.385423 1227.91966,209.03125 C1227.34674,207.677077 1226.1879,206.492193 1224.4431,205.476562 C1222.6983,204.460932 1220.34155,203.953125 1217.37278,203.953125 L1213.85716,203.953125 L1213.85716,201.0625 L1270.34153,201.0625 L1270.34153,203.953125 L1265.73216,203.953125 C1262.65923,203.953125 1260.18529,204.499995 1258.31028,205.59375 C1256.95611,206.32292 1255.88841,207.572908 1255.10716,209.34375 C1254.53424,210.593756 1254.24778,213.874973 1254.24778,219.1875 L1254.24778,286.6875 C1254.24778,292.104194 1254.56028,295.55468 1255.18528,297.039062 C1255.81029,298.523445 1257.03423,299.630205 1258.85716,300.359375 C1260.15925,300.828127 1263.31026,301.0625 1268.31028,301.0625 L1277.13841,301.0625 C1282.76344,301.0625 1287.45089,300.072927 1291.20091,298.09375 C1294.95093,296.114573 1298.19308,292.989605 1300.92747,288.71875 C1303.66186,284.447895 1306.25298,278.145875 1308.70091,269.8125 L1311.90403,269.8125 Z M1363.36307,207.15625 L1363.36307,250.28125 L1365.47245,250.28125 C1372.19123,250.28125 1377.06097,248.171896 1380.08182,243.953125 C1383.10267,239.734354 1385.02973,233.510458 1385.86307,225.28125 L1388.83182,225.28125 L1388.83182,280.75 L1385.86307,280.75 C1385.23807,274.708303 1383.92298,269.760436 1381.91776,265.90625 C1379.91254,262.052064 1377.58183,259.460944 1374.92557,258.132812 C1372.26931,256.804681 1368.41518,256.140625 1363.36307,256.140625 L1363.36307,285.984375 C1363.36307,291.817738 1363.61046,295.38541 1364.10526,296.6875 C1364.60005,297.98959 1365.52452,299.057288 1366.8787,299.890625 C1368.23287,300.723962 1370.42035,301.140625 1373.4412,301.140625 L1379.76932,301.140625 C1389.6652,301.140625 1397.59481,298.848981 1403.55838,294.265625 C1409.52195,289.682269 1413.80577,282.703172 1416.40995,273.328125 L1419.30057,273.328125 L1414.53495,307 L1322.97245,307 L1322.97245,304.109375 L1326.48807,304.109375 C1329.561,304.109375 1332.03494,303.5625 1333.90995,302.46875 C1335.26412,301.73958 1336.30577,300.489592 1337.03495,298.71875 C1337.60786,297.468744 1337.89432,294.187527 1337.89432,288.875 L1337.89432,219.1875 C1337.89432,214.395809 1337.76411,211.45313 1337.5037,210.359375 C1336.98286,208.536449 1336.01933,207.130213 1334.61307,206.140625 C1332.63389,204.682284 1329.92559,203.953125 1326.48807,203.953125 L1322.97245,203.953125 L1322.97245,201.0625 L1411.64432,201.0625 L1411.64432,232.390625 L1408.67557,232.390625 C1407.16515,224.734337 1405.04277,219.2396 1402.30838,215.90625 C1399.57399,212.5729 1395.70685,210.125008 1390.70682,208.5625 C1387.79014,207.624995 1382.32144,207.15625 1374.30057,207.15625 L1363.36307,207.15625 Z M1503.80648,198.640625 L1504.66586,233.953125 L1501.46273,233.953125 C1499.95231,225.098914 1496.24141,217.976589 1490.32992,212.585938 C1484.41843,207.195286 1478.02527,204.5 1471.15023,204.5 C1465.83771,204.5 1461.63202,205.919257 1458.53304,208.757812 C1455.43407,211.596368 1453.88461,214.864565 1453.88461,218.5625 C1453.88461,220.906262 1454.43148,222.989574 1455.52523,224.8125 C1457.03566,227.260429 1459.45751,229.68228 1462.79086,232.078125 C1465.23879,233.796884 1470.88977,236.843728 1479.74398,241.21875 C1492.13988,247.31253 1500.49917,253.067681 1504.82211,258.484375 C1509.09296,263.901069 1511.22836,270.098923 1511.22836,277.078125 C1511.22836,285.932336 1507.77787,293.549447 1500.87679,299.929688 C1493.97572,306.309928 1485.21279,309.5 1474.58773,309.5 C1471.25438,309.5 1468.10337,309.161462 1465.13461,308.484375 C1462.16584,307.807288 1458.44192,306.531259 1453.96273,304.65625 C1451.46272,303.614578 1449.40545,303.09375 1447.79086,303.09375 C1446.43668,303.09375 1445.00441,303.614578 1443.49398,304.65625 C1441.98356,305.697922 1440.75961,307.286448 1439.82211,309.421875 L1436.93148,309.421875 L1436.93148,269.421875 L1439.82211,269.421875 C1442.11379,280.671931 1446.5278,289.252575 1453.06429,295.164062 C1459.60079,301.07555 1466.64499,304.03125 1474.19711,304.03125 C1480.03047,304.03125 1484.67886,302.442724 1488.14242,299.265625 C1491.60598,296.088526 1493.33773,292.390646 1493.33773,288.171875 C1493.33773,285.671862 1492.67368,283.250012 1491.34554,280.90625 C1490.01741,278.562488 1487.9992,276.335948 1485.29086,274.226562 C1482.58251,272.117177 1477.79089,269.369809 1470.91586,265.984375 C1461.28039,261.244768 1454.35338,257.20835 1450.13461,253.875 C1445.91584,250.54165 1442.67368,246.817729 1440.40804,242.703125 C1438.14241,238.588521 1437.00961,234.057316 1437.00961,229.109375 C1437.00961,220.671833 1440.10853,213.484405 1446.30648,207.546875 C1452.50443,201.609345 1460.31685,198.640625 1469.74398,198.640625 C1473.1815,198.640625 1476.5148,199.057288 1479.74398,199.890625 C1482.19191,200.515628 1485.17365,201.674471 1488.68929,203.367188 C1492.20494,205.059904 1494.66585,205.90625 1496.07211,205.90625 C1497.42628,205.90625 1498.49398,205.489587 1499.27523,204.65625 C1500.05649,203.822912 1500.78565,201.817724 1501.46273,198.640625 L1503.80648,198.640625 Z M1594.95302,198.640625 L1595.81239,233.953125 L1592.60927,233.953125 C1591.09885,225.098914 1587.38794,217.976589 1581.47646,212.585938 C1575.56497,207.195286 1569.1718,204.5 1562.29677,204.5 C1556.98424,204.5 1552.77856,205.919257 1549.67958,208.757812 C1546.58061,211.596368 1545.03114,214.864565 1545.03114,218.5625 C1545.03114,220.906262 1545.57802,222.989574 1546.67177,224.8125 C1548.18219,227.260429 1550.60404,229.68228 1553.93739,232.078125 C1556.38532,233.796884 1562.03631,236.843728 1570.89052,241.21875 C1583.28641,247.31253 1591.64571,253.067681 1595.96864,258.484375 C1600.2395,263.901069 1602.37489,270.098923 1602.37489,277.078125 C1602.37489,285.932336 1598.92441,293.549447 1592.02333,299.929688 C1585.12226,306.309928 1576.35932,309.5 1565.73427,309.5 C1562.40092,309.5 1559.24991,309.161462 1556.28114,308.484375 C1553.31238,307.807288 1549.58846,306.531259 1545.10927,304.65625 C1542.60926,303.614578 1540.55199,303.09375 1538.93739,303.09375 C1537.58322,303.09375 1536.15094,303.614578 1534.64052,304.65625 C1533.1301,305.697922 1531.90615,307.286448 1530.96864,309.421875 L1528.07802,309.421875 L1528.07802,269.421875 L1530.96864,269.421875 C1533.26032,280.671931 1537.67434,289.252575 1544.21083,295.164062 C1550.74732,301.07555 1557.79152,304.03125 1565.34364,304.03125 C1571.17701,304.03125 1575.8254,302.442724 1579.28896,299.265625 C1582.75252,296.088526 1584.48427,292.390646 1584.48427,288.171875 C1584.48427,285.671862 1583.82021,283.250012 1582.49208,280.90625 C1581.16395,278.562488 1579.14574,276.335948 1576.43739,274.226562 C1573.72905,272.117177 1568.93743,269.369809 1562.06239,265.984375 C1552.42693,261.244768 1545.49992,257.20835 1541.28114,253.875 C1537.06237,250.54165 1533.82022,246.817729 1531.55458,242.703125 C1529.28895,238.588521 1528.15614,234.057316 1528.15614,229.109375 C1528.15614,220.671833 1531.25507,213.484405 1537.45302,207.546875 C1543.65097,201.609345 1551.46339,198.640625 1560.89052,198.640625 C1564.32804,198.640625 1567.66134,199.057288 1570.89052,199.890625 C1573.33845,200.515628 1576.32019,201.674471 1579.83583,203.367188 C1583.35147,205.059904 1585.81239,205.90625 1587.21864,205.90625 C1588.57282,205.90625 1589.64052,205.489587 1590.42177,204.65625 C1591.20302,203.822912 1591.93218,201.817724 1592.60927,198.640625 L1594.95302,198.640625 Z M1708.08594,182.195312 L1708.08594,236.589844 L1711.89453,236.589844 C1717.75394,236.589844 1722.53904,235.710946 1726.25,233.953125 C1729.96096,232.195304 1733.1022,229.233094 1735.67383,225.066406 C1738.24546,220.899719 1739.92187,215.268265 1740.70312,208.171875 L1744.12109,208.171875 L1744.12109,274.675781 L1740.70312,274.675781 C1739.46614,262.110614 1736.09703,253.826192 1730.5957,249.822266 C1725.09437,245.818339 1718.86071,243.816406 1711.89453,243.816406 L1708.08594,243.816406 L1708.08594,284.34375 C1708.08594,291.114617 1708.46028,295.346346 1709.20898,297.039062 C1709.95769,298.731779 1711.42252,300.212884 1713.60352,301.482422 C1715.78452,302.751959 1718.73045,303.386719 1722.44141,303.386719 L1726.83594,303.386719 L1726.83594,307 L1657.59766,307 L1657.59766,303.386719 L1661.99219,303.386719 C1665.83335,303.386719 1668.92577,302.703132 1671.26953,301.335938 C1672.96225,300.424475 1674.26432,298.86199 1675.17578,296.648438 C1675.89193,295.08593 1676.25,290.984408 1676.25,284.34375 L1676.25,197.234375 C1676.25,190.463508 1675.89193,186.231779 1675.17578,184.539062 C1674.45963,182.846346 1673.01108,181.365241 1670.83008,180.095703 C1668.64908,178.826166 1665.70314,178.191406 1661.99219,178.191406 L1657.59766,178.191406 L1657.59766,174.578125 L1769.31641,174.578125 L1769.31641,212.566406 L1765.3125,212.566406 C1764.40104,203.647091 1762.07359,197.039084 1758.33008,192.742188 C1754.58657,188.445291 1749.1667,185.417978 1742.07031,183.660156 C1738.16404,182.683589 1730.93755,182.195312 1720.39062,182.195312 L1708.08594,182.195312 Z M1878.99177,269.8125 L1875.00739,307 L1780.94489,307 L1780.94489,304.109375 L1784.46052,304.109375 C1787.53345,304.109375 1790.00738,303.5625 1791.88239,302.46875 C1793.23656,301.73958 1794.27822,300.489592 1795.00739,298.71875 C1795.58031,297.468744 1795.86677,294.187527 1795.86677,288.875 L1795.86677,219.1875 C1795.86677,213.770806 1795.58031,210.385423 1795.00739,209.03125 C1794.43447,207.677077 1793.27563,206.492193 1791.53083,205.476562 C1789.78603,204.460932 1787.42928,203.953125 1784.46052,203.953125 L1780.94489,203.953125 L1780.94489,201.0625 L1837.42927,201.0625 L1837.42927,203.953125 L1832.81989,203.953125 C1829.74696,203.953125 1827.27302,204.499995 1825.39802,205.59375 C1824.04384,206.32292 1822.97614,207.572908 1822.19489,209.34375 C1821.62197,210.593756 1821.33552,213.874973 1821.33552,219.1875 L1821.33552,286.6875 C1821.33552,292.104194 1821.64801,295.55468 1822.27302,297.039062 C1822.89802,298.523445 1824.12196,299.630205 1825.94489,300.359375 C1827.24698,300.828127 1830.39799,301.0625 1835.39802,301.0625 L1844.22614,301.0625 C1849.85117,301.0625 1854.53862,300.072927 1858.28864,298.09375 C1862.03866,296.114573 1865.28081,292.989605 1868.0152,288.71875 C1870.74959,284.447895 1873.34071,278.145875 1875.78864,269.8125 L1878.99177,269.8125 Z M1930.4508,207.15625 L1930.4508,250.28125 L1932.56018,250.28125 C1939.27896,250.28125 1944.1487,248.171896 1947.16955,243.953125 C1950.1904,239.734354 1952.11746,233.510458 1952.9508,225.28125 L1955.91955,225.28125 L1955.91955,280.75 L1952.9508,280.75 C1952.3258,274.708303 1951.01071,269.760436 1949.00549,265.90625 C1947.00027,262.052064 1944.66957,259.460944 1942.0133,258.132812 C1939.35704,256.804681 1935.50291,256.140625 1930.4508,256.140625 L1930.4508,285.984375 C1930.4508,291.817738 1930.6982,295.38541 1931.19299,296.6875 C1931.68778,297.98959 1932.61225,299.057288 1933.96643,299.890625 C1935.3206,300.723962 1937.50808,301.140625 1940.52893,301.140625 L1946.85705,301.140625 C1956.75294,301.140625 1964.68254,298.848981 1970.64611,294.265625 C1976.60969,289.682269 1980.8935,282.703172 1983.49768,273.328125 L1986.3883,273.328125 L1981.62268,307 L1890.06018,307 L1890.06018,304.109375 L1893.5758,304.109375 C1896.64873,304.109375 1899.12267,303.5625 1900.99768,302.46875 C1902.35185,301.73958 1903.39351,300.489592 1904.12268,298.71875 C1904.6956,297.468744 1904.98205,294.187527 1904.98205,288.875 L1904.98205,219.1875 C1904.98205,214.395809 1904.85185,211.45313 1904.59143,210.359375 C1904.07059,208.536449 1903.10706,207.130213 1901.7008,206.140625 C1899.72163,204.682284 1897.01332,203.953125 1893.5758,203.953125 L1890.06018,203.953125 L1890.06018,201.0625 L1978.73205,201.0625 L1978.73205,232.390625 L1975.7633,232.390625 C1974.25288,224.734337 1972.1305,219.2396 1969.39611,215.90625 C1966.66173,212.5729 1962.79458,210.125008 1957.79455,208.5625 C1954.87787,207.624995 1949.40918,207.15625 1941.3883,207.15625 L1930.4508,207.15625 Z M2070.89421,198.640625 L2071.75359,233.953125 L2068.55046,233.953125 C2067.04004,225.098914 2063.32914,217.976589 2057.41765,212.585938 C2051.50616,207.195286 2045.113,204.5 2038.23796,204.5 C2032.92544,204.5 2028.71975,205.919257 2025.62078,208.757812 C2022.5218,211.596368 2020.97234,214.864565 2020.97234,218.5625 C2020.97234,220.906262 2021.51921,222.989574 2022.61296,224.8125 C2024.12339,227.260429 2026.54524,229.68228 2029.87859,232.078125 C2032.32652,233.796884 2037.9775,236.843728 2046.83171,241.21875 C2059.22761,247.31253 2067.5869,253.067681 2071.90984,258.484375 C2076.18069,263.901069 2078.31609,270.098923 2078.31609,277.078125 C2078.31609,285.932336 2074.8656,293.549447 2067.96453,299.929688 C2061.06345,306.309928 2052.30052,309.5 2041.67546,309.5 C2038.34211,309.5 2035.1911,309.161462 2032.22234,308.484375 C2029.25357,307.807288 2025.52965,306.531259 2021.05046,304.65625 C2018.55045,303.614578 2016.49318,303.09375 2014.87859,303.09375 C2013.52442,303.09375 2012.09214,303.614578 2010.58171,304.65625 C2009.07129,305.697922 2007.84734,307.286448 2006.90984,309.421875 L2004.01921,309.421875 L2004.01921,269.421875 L2006.90984,269.421875 C2009.20152,280.671931 2013.61554,289.252575 2020.15203,295.164062 C2026.68852,301.07555 2033.73272,304.03125 2041.28484,304.03125 C2047.1182,304.03125 2051.76659,302.442724 2055.23015,299.265625 C2058.69371,296.088526 2060.42546,292.390646 2060.42546,288.171875 C2060.42546,285.671862 2059.76141,283.250012 2058.43328,280.90625 C2057.10515,278.562488 2055.08694,276.335948 2052.37859,274.226562 C2049.67024,272.117177 2044.87862,269.369809 2038.00359,265.984375 C2028.36812,261.244768 2021.44111,257.20835 2017.22234,253.875 C2013.00357,250.54165 2009.76141,246.817729 2007.49578,242.703125 C2005.23014,238.588521 2004.09734,234.057316 2004.09734,229.109375 C2004.09734,220.671833 2007.19627,213.484405 2013.39421,207.546875 C2019.59216,201.609345 2027.40458,198.640625 2036.83171,198.640625 C2040.26923,198.640625 2043.60253,199.057288 2046.83171,199.890625 C2049.27964,200.515628 2052.26138,201.674471 2055.77703,203.367188 C2059.29267,205.059904 2061.75358,205.90625 2063.15984,205.90625 C2064.51401,205.90625 2065.58171,205.489587 2066.36296,204.65625 C2067.14422,203.822912 2067.87338,201.817724 2068.55046,198.640625 L2070.89421,198.640625 Z M2130.6345,256.0625 L2130.6345,288.875 C2130.6345,294.291694 2130.93398,297.677077 2131.53294,299.03125 C2132.1319,300.385423 2133.30376,301.570307 2135.04856,302.585938 C2136.79336,303.601568 2139.15011,304.109375 2142.11888,304.109375 L2145.6345,304.109375 L2145.6345,307 L2090.24388,307 L2090.24388,304.109375 L2093.7595,304.109375 C2096.83243,304.109375 2099.30637,303.5625 2101.18138,302.46875 C2102.53555,301.73958 2103.57721,300.489592 2104.30638,298.71875 C2104.8793,297.468744 2105.16575,294.187527 2105.16575,288.875 L2105.16575,219.1875 C2105.16575,213.770806 2104.8793,210.385423 2104.30638,209.03125 C2103.73346,207.677077 2102.57461,206.492193 2100.82981,205.476562 C2099.08501,204.460932 2096.72827,203.953125 2093.7595,203.953125 L2090.24388,203.953125 L2090.24388,201.0625 L2145.6345,201.0625 L2145.6345,203.953125 L2142.11888,203.953125 C2139.04594,203.953125 2136.57201,204.499995 2134.697,205.59375 C2133.34283,206.32292 2132.27513,207.572908 2131.49388,209.34375 C2130.92096,210.593756 2130.6345,213.874973 2130.6345,219.1875 L2130.6345,249.1875 L2168.05638,249.1875 L2168.05638,219.1875 C2168.05638,213.770806 2167.76992,210.385423 2167.197,209.03125 C2166.62408,207.677077 2165.45222,206.492193 2163.68138,205.476562 C2161.91053,204.460932 2159.54077,203.953125 2156.572,203.953125 L2153.1345,203.953125 L2153.1345,201.0625 L2208.447,201.0625 L2208.447,203.953125 L2205.0095,203.953125 C2201.88449,203.953125 2199.41055,204.499995 2197.58763,205.59375 C2196.23345,206.32292 2195.16576,207.572908 2194.3845,209.34375 C2193.81158,210.593756 2193.52513,213.874973 2193.52513,219.1875 L2193.52513,288.875 C2193.52513,294.291694 2193.81158,297.677077 2194.3845,299.03125 C2194.95742,300.385423 2196.12928,301.570307 2197.90013,302.585938 C2199.67097,303.601568 2202.04074,304.109375 2205.0095,304.109375 L2208.447,304.109375 L2208.447,307 L2153.1345,307 L2153.1345,304.109375 L2156.572,304.109375 C2159.69702,304.109375 2162.17095,303.5625 2163.99388,302.46875 C2165.34805,301.73958 2166.41575,300.489592 2167.197,298.71875 C2167.76992,297.468744 2168.05638,294.187527 2168.05638,288.875 L2168.05638,256.0625 L2130.6345,256.0625 Z" id="FLAWLESSFLESH" fill="#FF2424" fill-rule="nonzero"></path>
                    <path d="M742.8,365.2 L765.9,365.2 C769.966687,365.2 773.633317,365.566663 776.9,366.3 C780.166683,367.033337 782.966655,368.233325 785.3,369.9 C787.633345,371.566675 789.433327,373.699987 790.7,376.3 C791.966673,378.900013 792.6,382.033315 792.6,385.7 C792.6,389.633353 791.866674,392.93332 790.4,395.6 C788.933326,398.26668 786.950012,400.416659 784.45,402.05 C781.949987,403.683341 779.03335,404.866663 775.7,405.6 C772.36665,406.333337 768.833352,406.7 765.1,406.7 L755.4,406.7 L755.4,436 L742.8,436 L742.8,365.2 Z M764.2,396.1 C766.266677,396.1 768.233324,395.950001 770.1,395.65 C771.966676,395.349998 773.633326,394.81667 775.1,394.05 C776.566674,393.28333 777.733329,392.23334 778.6,390.9 C779.466671,389.56666 779.9,387.833344 779.9,385.7 C779.9,383.633323 779.466671,381.950007 778.6,380.65 C777.733329,379.349993 776.58334,378.333337 775.15,377.6 C773.716659,376.866663 772.083342,376.383334 770.25,376.15 C768.416657,375.916666 766.533343,375.8 764.6,375.8 L755.4,375.8 L755.4,396.1 L764.2,396.1 Z M828.751351,429.9 L828.451351,429.9 C827.251345,432.033344 825.318031,433.783326 822.651351,435.15 C819.984671,436.516674 816.951368,437.2 813.551351,437.2 C811.618008,437.2 809.601362,436.950002 807.501351,436.45 C805.401341,435.949997 803.468027,435.116672 801.701351,433.95 C799.934676,432.783327 798.468024,431.250009 797.301351,429.35 C796.134679,427.449991 795.551351,425.100014 795.551351,422.3 C795.551351,418.699982 796.568008,415.833344 798.601351,413.7 C800.634695,411.566656 803.251335,409.933339 806.451351,408.8 C809.651367,407.666661 813.201332,406.916669 817.101351,406.55 C821.001371,406.183332 824.817999,406 828.551351,406 L828.551351,404.8 C828.551351,401.799985 827.468029,399.583341 825.301351,398.15 C823.134674,396.716659 820.551366,396 817.551351,396 C815.018005,396 812.584696,396.533328 810.251351,397.6 C807.918006,398.666672 805.984692,399.966659 804.451351,401.5 L798.251351,394.2 C800.984698,391.666654 804.134667,389.766673 807.701351,388.5 C811.268036,387.233327 814.884666,386.6 818.551351,386.6 C822.818039,386.6 826.334671,387.199994 829.101351,388.4 C831.868032,389.6 834.051351,391.166657 835.651351,393.1 C837.251359,395.033343 838.368015,397.199988 839.001351,399.6 C839.634688,402.000012 839.951351,404.399988 839.951351,406.8 L839.951351,436 L828.751351,436 L828.751351,429.9 Z M828.551351,414.1 L825.851351,414.1 C823.918008,414.1 821.884695,414.183333 819.751351,414.35 C817.618007,414.516667 815.65136,414.88333 813.851351,415.45 C812.051351,416.01667 810.551351,416.816662 809.351351,417.85 C808.151345,418.883339 807.551351,420.299991 807.551351,422.1 C807.551351,423.233339 807.801349,424.18333 808.301351,424.95 C808.801354,425.71667 809.451347,426.333331 810.251351,426.8 C811.051351,427.266669 811.951346,427.6 812.951351,427.8 C813.951356,428.000001 814.951346,428.1 815.951351,428.1 C820.084705,428.1 823.218007,427.000011 825.351351,424.8 C827.484695,422.599989 828.551351,419.600019 828.551351,415.8 L828.551351,414.1 Z M855.302703,388 L866.702703,388 L866.702703,395.7 L866.902703,395.7 C867.969375,393.299988 869.819356,391.183342 872.452703,389.35 C875.086049,387.516658 878.202685,386.6 881.802703,386.6 C884.936052,386.6 887.619358,387.149994 889.852703,388.25 C892.086047,389.350006 893.919362,390.799991 895.352703,392.6 C896.786043,394.400009 897.836033,396.466655 898.502703,398.8 C899.169373,401.133345 899.502703,403.533321 899.502703,406 L899.502703,436 L887.502703,436 L887.502703,409.4 C887.502703,407.999993 887.402704,406.533341 887.202703,405 C887.002702,403.466659 886.569373,402.083339 885.902703,400.85 C885.236033,399.61666 884.319375,398.6 883.152703,397.8 C881.98603,396.999996 880.436046,396.6 878.502703,396.6 C876.56936,396.6 874.90271,396.983329 873.502703,397.75 C872.102696,398.516671 870.952707,399.499994 870.052703,400.7 C869.152698,401.900006 868.469372,403.283325 868.002703,404.85 C867.536034,406.416674 867.302703,407.999992 867.302703,409.6 L867.302703,436 L855.302703,436 L855.302703,388 Z M907.954054,397.6 L907.954054,388 L916.354054,388 L916.354054,374.1 L928.154054,374.1 L928.154054,388 L940.154054,388 L940.154054,397.6 L928.154054,397.6 L928.154054,419.9 C928.154054,422.033344 928.537384,423.799993 929.304054,425.2 C930.070725,426.6 931.787374,427.3 934.454054,427.3 C935.254058,427.3 936.120716,427.216668 937.054054,427.05 C937.987392,426.883332 938.820717,426.633335 939.554054,426.3 L939.954054,435.7 C938.887382,436.1 937.620728,436.416666 936.154054,436.65 C934.68738,436.883334 933.287394,437 931.954054,437 C928.754038,437 926.154064,436.550005 924.154054,435.65 C922.154044,434.749996 920.570727,433.516675 919.404054,431.95 C918.237382,430.383325 917.43739,428.583344 917.004054,426.55 C916.570719,424.516657 916.354054,422.333345 916.354054,420 L916.354054,397.6 L907.954054,397.6 Z M947.405405,411.8 C947.405405,407.999981 948.088732,404.550015 949.455405,401.45 C950.822079,398.349985 952.67206,395.700011 955.005405,393.5 C957.33875,391.299989 960.105389,389.6 963.305405,388.4 C966.505421,387.199994 969.905387,386.6 973.505405,386.6 C977.105423,386.6 980.505389,387.199994 983.705405,388.4 C986.905421,389.6 989.67206,391.299989 992.005405,393.5 C994.33875,395.700011 996.188732,398.349985 997.555405,401.45 C998.922079,404.550015 999.605405,407.999981 999.605405,411.8 C999.605405,415.600019 998.922079,419.066651 997.555405,422.2 C996.188732,425.333349 994.33875,428.016656 992.005405,430.25 C989.67206,432.483344 986.905421,434.233327 983.705405,435.5 C980.505389,436.766673 977.105423,437.4 973.505405,437.4 C969.905387,437.4 966.505421,436.766673 963.305405,435.5 C960.105389,434.233327 957.33875,432.483344 955.005405,430.25 C952.67206,428.016656 950.822079,425.333349 949.455405,422.2 C948.088732,419.066651 947.405405,415.600019 947.405405,411.8 Z M959.605405,411.8 C959.605405,413.666676 959.888736,415.533324 960.455405,417.4 C961.022075,419.266676 961.872066,420.933326 963.005405,422.4 C964.138744,423.866674 965.572063,425.066662 967.305405,426 C969.038747,426.933338 971.105393,427.4 973.505405,427.4 C975.905417,427.4 977.972063,426.933338 979.705405,426 C981.438747,425.066662 982.872066,423.866674 984.005405,422.4 C985.138744,420.933326 985.988736,419.266676 986.555405,417.4 C987.122075,415.533324 987.405405,413.666676 987.405405,411.8 C987.405405,409.933324 987.122075,408.083342 986.555405,406.25 C985.988736,404.416658 985.138744,402.766674 984.005405,401.3 C982.872066,399.833326 981.438747,398.650005 979.705405,397.75 C977.972063,396.849995 975.905417,396.4 973.505405,396.4 C971.105393,396.4 969.038747,396.849995 967.305405,397.75 C965.572063,398.650005 964.138744,399.833326 963.005405,401.3 C961.872066,402.766674 961.022075,404.416658 960.455405,406.25 C959.888736,408.083342 959.605405,409.933324 959.605405,411.8 Z M1012.55676,388 L1023.95676,388 L1023.95676,395.7 L1024.15676,395.7 C1025.22343,393.299988 1027.07341,391.183342 1029.70676,389.35 C1032.3401,387.516658 1035.45674,386.6 1039.05676,386.6 C1042.19011,386.6 1044.87341,387.149994 1047.10676,388.25 C1049.3401,389.350006 1051.17342,390.799991 1052.60676,392.6 C1054.0401,394.400009 1055.09009,396.466655 1055.75676,398.8 C1056.42343,401.133345 1056.75676,403.533321 1056.75676,406 L1056.75676,436 L1044.75676,436 L1044.75676,409.4 C1044.75676,407.999993 1044.65676,406.533341 1044.45676,405 C1044.25676,403.466659 1043.82343,402.083339 1043.15676,400.85 C1042.49009,399.61666 1041.57343,398.6 1040.40676,397.8 C1039.24008,396.999996 1037.6901,396.6 1035.75676,396.6 C1033.82341,396.6 1032.15676,396.983329 1030.75676,397.75 C1029.35675,398.516671 1028.20676,399.499994 1027.30676,400.7 C1026.40675,401.900006 1025.72343,403.283325 1025.25676,404.85 C1024.79009,406.416674 1024.55676,407.999992 1024.55676,409.6 L1024.55676,436 L1012.55676,436 L1012.55676,388 Z M1105.90811,407.2 C1105.90811,405.666659 1105.69144,404.200007 1105.25811,402.8 C1104.82477,401.399993 1104.14145,400.166672 1103.20811,399.1 C1102.27477,398.033328 1101.09145,397.183336 1099.65811,396.55 C1098.22477,395.916664 1096.54145,395.6 1094.60811,395.6 C1091.00809,395.6 1087.95812,396.683323 1085.45811,398.85 C1082.9581,401.016678 1081.57478,403.799983 1081.30811,407.2 L1105.90811,407.2 Z M1117.90811,412.6 L1117.90811,414.2 C1117.90811,414.733336 1117.87478,415.266664 1117.80811,415.8 L1081.30811,415.8 C1081.44144,417.533342 1081.89144,419.116659 1082.65811,420.55 C1083.42478,421.98334 1084.44144,423.216661 1085.70811,424.25 C1086.97478,425.283339 1088.4081,426.1 1090.00811,426.7 C1091.60812,427.300003 1093.27477,427.6 1095.00811,427.6 C1098.00812,427.6 1100.54143,427.050005 1102.60811,425.95 C1104.67479,424.849994 1106.37477,423.333343 1107.70811,421.4 L1115.70811,427.8 C1110.97475,434.200032 1104.10815,437.4 1095.10811,437.4 C1091.37476,437.4 1087.94146,436.816672 1084.80811,435.65 C1081.67476,434.483327 1078.95812,432.833344 1076.65811,430.7 C1074.3581,428.566656 1072.55811,425.950016 1071.25811,422.85 C1069.9581,419.749984 1069.30811,416.233353 1069.30811,412.3 C1069.30811,408.433314 1069.9581,404.916682 1071.25811,401.75 C1072.55811,398.583318 1074.34143,395.883345 1076.60811,393.65 C1078.87479,391.416656 1081.55809,389.683339 1084.65811,388.45 C1087.75812,387.21666 1091.10809,386.6 1094.70811,386.6 C1098.04146,386.6 1101.12476,387.149994 1103.95811,388.25 C1106.79146,389.350006 1109.24143,390.983322 1111.30811,393.15 C1113.37479,395.316678 1114.99144,398.016651 1116.15811,401.25 C1117.32478,404.48335 1117.90811,408.266645 1117.90811,412.6 Z M1165.81081,391.6 L1154.21081,391.6 L1162.71081,365.2 L1172.81081,365.2 L1165.81081,391.6 Z M1185.31081,391.6 L1173.71081,391.6 L1182.21081,365.2 L1192.31081,365.2 L1185.31081,391.6 Z M1205.66216,365.2 L1233.26216,365.2 C1235.92884,365.2 1238.56215,365.516663 1241.16216,366.15 C1243.76218,366.783336 1246.07882,367.81666 1248.11216,369.25 C1250.14551,370.68334 1251.79549,372.533322 1253.06216,374.8 C1254.32884,377.066678 1254.96216,379.799984 1254.96216,383 C1254.96216,387.00002 1253.82884,390.299987 1251.56216,392.9 C1249.29548,395.500013 1246.32885,397.366661 1242.66216,398.5 L1242.66216,398.7 C1247.12885,399.300003 1250.79548,401.033319 1253.66216,403.9 C1256.52884,406.766681 1257.96216,410.599976 1257.96216,415.4 C1257.96216,419.266686 1257.1955,422.516653 1255.66216,425.15 C1254.12882,427.783346 1252.11217,429.899992 1249.61216,431.5 C1247.11215,433.100008 1244.24551,434.249997 1241.01216,434.95 C1237.77881,435.650004 1234.49551,436 1231.16216,436 L1205.66216,436 L1205.66216,365.2 Z M1218.26216,394 L1229.46216,394 C1233.66218,394 1236.86215,393.166675 1239.06216,391.5 C1241.26217,389.833325 1242.36216,387.466682 1242.36216,384.4 C1242.36216,381.199984 1241.22884,378.93334 1238.96216,377.6 C1236.69548,376.26666 1233.16219,375.6 1228.36216,375.6 L1218.26216,375.6 L1218.26216,394 Z M1218.26216,425.4 L1229.56216,425.4 C1231.16217,425.4 1232.89549,425.283335 1234.76216,425.05 C1236.62884,424.816665 1238.34549,424.333337 1239.91216,423.6 C1241.47884,422.866663 1242.77882,421.8 1243.81216,420.4 C1244.8455,418.999993 1245.36216,417.133345 1245.36216,414.8 C1245.36216,411.066648 1244.09551,408.466674 1241.56216,407 C1239.02882,405.533326 1235.19552,404.8 1230.06216,404.8 L1218.26216,404.8 L1218.26216,425.4 Z M1271.11351,388 L1282.61351,388 L1282.61351,396 L1282.81351,396 C1284.14685,393.199986 1286.0135,390.933342 1288.41351,389.2 C1290.81353,387.466658 1293.6135,386.6 1296.81351,386.6 C1297.28018,386.6 1297.78018,386.616667 1298.31351,386.65 C1298.84685,386.683334 1299.31351,386.766666 1299.71351,386.9 L1299.71351,397.9 C1298.91351,397.699999 1298.23018,397.566667 1297.66351,397.5 C1297.09684,397.433333 1296.54685,397.4 1296.01351,397.4 C1293.28017,397.4 1291.08019,397.899995 1289.41351,398.9 C1287.74684,399.900005 1286.44685,401.1 1285.51351,402.5 C1284.58018,403.900007 1283.94685,405.333326 1283.61351,406.8 C1283.28018,408.266674 1283.11351,409.433329 1283.11351,410.3 L1283.11351,436 L1271.11351,436 L1271.11351,388 Z M1309.06486,388 L1321.06486,388 L1321.06486,436 L1309.06486,436 L1309.06486,388 Z M1307.36486,371.7 C1307.36486,369.766657 1308.08152,368.08334 1309.51486,366.65 C1310.94821,365.216659 1312.76485,364.5 1314.96486,364.5 C1317.16488,364.5 1319.01486,365.183327 1320.51486,366.55 C1322.01487,367.916674 1322.76486,369.633323 1322.76486,371.7 C1322.76486,373.766677 1322.01487,375.483326 1320.51486,376.85 C1319.01486,378.216674 1317.16488,378.9 1314.96486,378.9 C1312.76485,378.9 1310.94821,378.18334 1309.51486,376.75 C1308.08152,375.31666 1307.36486,373.633343 1307.36486,371.7 Z M1385.81622,388 L1385.81622,431.7 C1385.81622,436.033355 1385.28289,439.949982 1384.21622,443.45 C1383.14954,446.950018 1381.49956,449.916654 1379.26622,452.35 C1377.03287,454.783345 1374.21623,456.66666 1370.81622,458 C1367.4162,459.33334 1363.38291,460 1358.71622,460 C1356.78287,460 1354.73289,459.833335 1352.56622,459.5 C1350.39954,459.166665 1348.26623,458.66667 1346.16622,458 C1344.06621,457.33333 1342.04956,456.500005 1340.11622,455.5 C1338.18287,454.499995 1336.44956,453.366673 1334.91622,452.1 L1341.81622,442.8 C1344.14956,445.000011 1346.78287,446.683328 1349.71622,447.85 C1352.64956,449.016673 1355.6162,449.6 1358.61622,449.6 C1361.4829,449.6 1363.89954,449.183337 1365.86622,448.35 C1367.83289,447.516662 1369.39954,446.366674 1370.56622,444.9 C1371.73289,443.433326 1372.56621,441.70001 1373.06622,439.7 C1373.56622,437.69999 1373.81622,435.500012 1373.81622,433.1 L1373.81622,429.6 L1373.61622,429.6 C1371.88287,431.933345 1369.66623,433.71666 1366.96622,434.95 C1364.2662,436.183339 1361.24957,436.8 1357.91622,436.8 C1354.3162,436.8 1351.04956,436.13334 1348.11622,434.8 C1345.18287,433.46666 1342.69956,431.666678 1340.66622,429.4 C1338.63287,427.133322 1337.04956,424.483349 1335.91622,421.45 C1334.78288,418.416652 1334.21622,415.200017 1334.21622,411.8 C1334.21622,408.333316 1334.76621,405.066682 1335.86622,402 C1336.96622,398.933318 1338.53287,396.266678 1340.56622,394 C1342.59956,391.733322 1345.0662,389.93334 1347.96622,388.6 C1350.86623,387.26666 1354.1162,386.6 1357.71622,386.6 C1361.11623,386.6 1364.28287,387.299993 1367.21622,388.7 C1370.14956,390.1 1372.48287,392.266652 1374.21622,395.2 L1374.41622,395.2 L1374.41622,388 L1385.81622,388 Z M1360.21622,396.4 C1358.01621,396.4 1356.06622,396.799996 1354.36622,397.6 C1352.66621,398.4 1351.23289,399.483326 1350.06622,400.85 C1348.89954,402.216674 1347.99955,403.833324 1347.36622,405.7 C1346.73288,407.566676 1346.41622,409.566656 1346.41622,411.7 C1346.41622,413.633343 1346.73288,415.499991 1347.36622,417.3 C1347.99955,419.100009 1348.89954,420.716659 1350.06622,422.15 C1351.23289,423.583341 1352.66621,424.733329 1354.36622,425.6 C1356.06622,426.466671 1357.98287,426.9 1360.11622,426.9 C1362.31623,426.9 1364.29954,426.483338 1366.06622,425.65 C1367.83289,424.816663 1369.33288,423.700007 1370.56622,422.3 C1371.79956,420.9 1372.74955,419.283343 1373.41622,417.45 C1374.08289,415.616657 1374.41622,413.70001 1374.41622,411.7 C1374.41622,409.633323 1374.08289,407.666676 1373.41622,405.8 C1372.74955,403.933324 1371.79956,402.300007 1370.56622,400.9 C1369.33288,399.499993 1367.84956,398.4 1366.11622,397.6 C1364.38287,396.799996 1362.41623,396.4 1360.21622,396.4 Z M1428.26757,386.6 C1431.40092,386.6 1434.08422,387.149994 1436.31757,388.25 C1438.55091,389.350006 1440.38423,390.799991 1441.81757,392.6 C1443.25091,394.4 1444.3009,396.466655 1444.96757,398.8 C1445.63424,401.133345 1445.96757,403.533321 1445.96757,406 L1445.96757,436 L1433.96757,436 L1433.96757,409.6 C1433.96757,408.199993 1433.86757,406.750008 1433.66757,405.25 C1433.46757,403.749993 1433.0509,402.38334 1432.41757,401.15 C1431.78423,399.916661 1430.88424,398.9 1429.71757,398.1 C1428.5509,397.299996 1427.00091,396.9 1425.06757,396.9 C1423.13422,396.9 1421.46757,397.266663 1420.06757,398 C1418.66756,398.733337 1417.50091,399.71666 1416.56757,400.95 C1415.63423,402.183339 1414.93424,403.566659 1414.46757,405.1 C1414.0009,406.633341 1413.76757,408.199992 1413.76757,409.8 L1413.76757,436 L1401.76757,436 L1401.76757,360.4 L1413.76757,360.4 L1413.76757,394.7 L1413.96757,394.7 C1414.43424,393.699995 1415.11756,392.716671 1416.01757,391.75 C1416.91757,390.783329 1417.96756,389.916671 1419.16757,389.15 C1420.36757,388.38333 1421.73423,387.766669 1423.26757,387.3 C1424.80091,386.833331 1426.46756,386.6 1428.26757,386.6 Z M1454.41892,397.6 L1454.41892,388 L1462.81892,388 L1462.81892,374.1 L1474.61892,374.1 L1474.61892,388 L1486.61892,388 L1486.61892,397.6 L1474.61892,397.6 L1474.61892,419.9 C1474.61892,422.033344 1475.00225,423.799993 1475.76892,425.2 C1476.53559,426.6 1478.25224,427.3 1480.91892,427.3 C1481.71892,427.3 1482.58558,427.216668 1483.51892,427.05 C1484.45226,426.883332 1485.28558,426.633335 1486.01892,426.3 L1486.41892,435.7 C1485.35225,436.1 1484.08559,436.416666 1482.61892,436.65 C1481.15224,436.883334 1479.75226,437 1478.41892,437 C1475.2189,437 1472.61893,436.550005 1470.61892,435.65 C1468.61891,434.749996 1467.03559,433.516675 1465.86892,431.95 C1464.70225,430.383325 1463.90225,428.583344 1463.46892,426.55 C1463.03558,424.516657 1462.81892,422.333345 1462.81892,420 L1462.81892,397.6 L1454.41892,397.6 Z M1523.62162,365.2 L1548.22162,365.2 C1551.55497,365.2 1554.78827,365.549997 1557.92162,366.25 C1561.05497,366.950003 1563.83828,368.099992 1566.27162,369.7 C1568.70497,371.300008 1570.65495,373.399987 1572.12162,376 C1573.5883,378.600013 1574.32162,381.766648 1574.32162,385.5 C1574.32162,390.633359 1572.87164,394.81665 1569.97162,398.05 C1567.07161,401.283349 1563.12165,403.466661 1558.12162,404.6 L1577.02162,436 L1561.82162,436 L1545.42162,406 L1536.22162,406 L1536.22162,436 L1523.62162,436 L1523.62162,365.2 Z M1546.52162,395.7 C1548.32163,395.7 1550.12161,395.566668 1551.92162,395.3 C1553.72162,395.033332 1555.33828,394.533337 1556.77162,393.8 C1558.20496,393.066663 1559.38828,392.016674 1560.32162,390.65 C1561.25496,389.283326 1561.72162,387.533344 1561.72162,385.4 C1561.72162,383.466657 1561.28829,381.88334 1560.42162,380.65 C1559.55495,379.416661 1558.45496,378.433337 1557.12162,377.7 C1555.78828,376.966663 1554.27163,376.466668 1552.57162,376.2 C1550.87161,375.933332 1549.22162,375.8 1547.62162,375.8 L1536.22162,375.8 L1536.22162,395.7 L1546.52162,395.7 Z M1619.87297,407.2 C1619.87297,405.666659 1619.65631,404.200007 1619.22297,402.8 C1618.78964,401.399993 1618.10631,400.166672 1617.17297,399.1 C1616.23963,398.033328 1615.05631,397.183336 1613.62297,396.55 C1612.18963,395.916664 1610.50632,395.6 1608.57297,395.6 C1604.97295,395.6 1601.92299,396.683323 1599.42297,398.85 C1596.92296,401.016678 1595.53964,403.799983 1595.27297,407.2 L1619.87297,407.2 Z M1631.87297,412.6 L1631.87297,414.2 C1631.87297,414.733336 1631.83964,415.266664 1631.77297,415.8 L1595.27297,415.8 C1595.40631,417.533342 1595.8563,419.116659 1596.62297,420.55 C1597.38964,421.98334 1598.4063,423.216661 1599.67297,424.25 C1600.93965,425.283339 1602.37296,426.1 1603.97297,426.7 C1605.57298,427.300003 1607.23963,427.6 1608.97297,427.6 C1611.97299,427.6 1614.5063,427.050005 1616.57297,425.95 C1618.63965,424.849994 1620.33963,423.333343 1621.67297,421.4 L1629.67297,427.8 C1624.93962,434.200032 1618.07302,437.4 1609.07297,437.4 C1605.33962,437.4 1601.90632,436.816672 1598.77297,435.65 C1595.63962,434.483327 1592.92298,432.833344 1590.62297,430.7 C1588.32296,428.566656 1586.52298,425.950016 1585.22297,422.85 C1583.92297,419.749984 1583.27297,416.233353 1583.27297,412.3 C1583.27297,408.433314 1583.92297,404.916682 1585.22297,401.75 C1586.52298,398.583318 1588.30629,395.883345 1590.57297,393.65 C1592.83965,391.416656 1595.52296,389.683339 1598.62297,388.45 C1601.72299,387.21666 1605.07295,386.6 1608.67297,386.6 C1612.00632,386.6 1615.08963,387.149994 1617.92297,388.25 C1620.75632,389.350006 1623.2063,390.983322 1625.27297,393.15 C1627.33965,395.316678 1628.9563,398.016651 1630.12297,401.25 C1631.28965,404.48335 1631.87297,408.266645 1631.87297,412.6 Z M1693.62432,436 L1682.22432,436 L1682.22432,428.8 L1682.02432,428.8 C1680.35765,431.600014 1678.04101,433.733326 1675.07432,435.2 C1672.10764,436.666674 1668.92434,437.4 1665.52432,437.4 C1661.85764,437.4 1658.57434,436.716674 1655.67432,435.35 C1652.77431,433.983326 1650.30767,432.150012 1648.27432,429.85 C1646.24098,427.549988 1644.67433,424.850015 1643.57432,421.75 C1642.47432,418.649985 1641.92432,415.333351 1641.92432,411.8 C1641.92432,408.266649 1642.49099,404.966682 1643.62432,401.9 C1644.75766,398.833318 1646.35765,396.166678 1648.42432,393.9 C1650.491,391.633322 1652.95764,389.850007 1655.82432,388.55 C1658.69101,387.249993 1661.82431,386.6 1665.22432,386.6 C1667.42434,386.6 1669.39098,386.849997 1671.12432,387.35 C1672.85767,387.850002 1674.37432,388.466663 1675.67432,389.2 C1676.97433,389.933337 1678.09099,390.733329 1679.02432,391.6 C1679.95766,392.466671 1680.72432,393.299996 1681.32432,394.1 L1681.62432,394.1 L1681.62432,360.4 L1693.62432,360.4 L1693.62432,436 Z M1654.12432,411.8 C1654.12432,413.666676 1654.40765,415.533324 1654.97432,417.4 C1655.54099,419.266676 1656.39099,420.933326 1657.52432,422.4 C1658.65766,423.866674 1660.09098,425.066662 1661.82432,426 C1663.55767,426.933338 1665.59098,427.4 1667.92432,427.4 C1670.12434,427.4 1672.09098,426.950004 1673.82432,426.05 C1675.55767,425.149995 1677.04098,423.966674 1678.27432,422.5 C1679.50766,421.033326 1680.44099,419.383343 1681.07432,417.55 C1681.70766,415.716657 1682.02432,413.866676 1682.02432,412 C1682.02432,410.133324 1681.70766,408.266676 1681.07432,406.4 C1680.44099,404.533324 1679.50766,402.866674 1678.27432,401.4 C1677.04098,399.933326 1675.55767,398.733338 1673.82432,397.8 C1672.09098,396.866662 1670.12434,396.4 1667.92432,396.4 C1665.59098,396.4 1663.55767,396.849995 1661.82432,397.75 C1660.09098,398.650005 1658.65766,399.833326 1657.52432,401.3 C1656.39099,402.766674 1655.54099,404.416658 1654.97432,406.25 C1654.40765,408.083342 1654.12432,409.933324 1654.12432,411.8 Z M1733.07568,365.2 L1744.67568,365.2 L1736.17568,391.6 L1726.07568,391.6 L1733.07568,365.2 Z M1713.57568,365.2 L1725.17568,365.2 L1716.67568,391.6 L1706.57568,391.6 L1713.57568,365.2 Z" id="Pantone“BrightRed”" fill="#4D4D4D" fill-rule="nonzero"></path>
                </g>
            </g>
        </g>
    </g>
</svg>