<?xml version="1.0" encoding="UTF-8"?>
<svg width="2209px" height="615px" viewBox="0 0 2209 615" version="1.1" xmlns="http://www.w3.org/2000/svg" xmlns:xlink="http://www.w3.org/1999/xlink">
    <!-- Generator: Sketch 57.1 (83088) - https://sketch.com -->
    <title>Group 24</title>
    <desc>Created with Sketch.</desc>
    <g id="Page-1" stroke="none" stroke-width="1" fill="none" fill-rule="evenodd">
        <g id="Proposal" transform="translate(-167107.000000, -17595.000000)">
            <g id="Group-24" transform="translate(167107.000000, 17595.000000)">
                <rect id="Rectangle" fill="#FFFFFF" x="0" y="0" width="2209" height="615"></rect>
                <g id="color1">
                    <g id="Group-12" fill="#0CBAB5">
                        <circle id="Oval" cx="307.5" cy="307.5" r="307.5"></circle>
                        <path d="M841.171875,167.578125 L841.171875,203.417969 L837.65625,203.417969 C835.572906,195.149698 833.261731,189.209002 830.722656,185.595703 C828.183581,181.982404 824.700543,179.101573 820.273438,176.953125 C817.799467,175.781244 813.470083,175.195312 807.285156,175.195312 L797.421875,175.195312 L797.421875,277.34375 C797.421875,284.114617 797.79622,288.346346 798.544922,290.039062 C799.293624,291.731779 800.758453,293.212884 802.939453,294.482422 C805.120454,295.751959 808.098939,296.386719 811.875,296.386719 L816.269531,296.386719 L816.269531,300 L746.933594,300 L746.933594,296.386719 L751.328125,296.386719 C755.16929,296.386719 758.261707,295.703132 760.605469,294.335938 C762.298186,293.424475 763.632808,291.86199 764.609375,289.648438 C765.325524,288.08593 765.683594,283.984408 765.683594,277.34375 L765.683594,175.195312 L756.113281,175.195312 C747.193966,175.195312 740.716166,177.083314 736.679688,180.859375 C731.015597,186.132839 727.434903,193.652295 725.9375,203.417969 L722.226562,203.417969 L722.226562,167.578125 L841.171875,167.578125 Z M909.69489,297.109375 L909.69489,300 L854.304265,300 L854.304265,297.109375 L857.81989,297.109375 C860.892822,297.109375 863.366756,296.5625 865.241765,295.46875 C866.595939,294.73958 867.637595,293.489592 868.366765,291.71875 C868.939685,290.468744 869.22614,287.187527 869.22614,281.875 L869.22614,212.1875 C869.22614,206.770806 868.939685,203.385423 868.366765,202.03125 C867.793846,200.677077 866.635003,199.492193 864.890203,198.476562 C863.145402,197.460932 860.788655,196.953125 857.81989,196.953125 L854.304265,196.953125 L854.304265,194.0625 L909.69489,194.0625 L909.69489,196.953125 L906.179265,196.953125 C903.106333,196.953125 900.6324,197.499995 898.75739,198.59375 C897.403217,199.32292 896.335519,200.572908 895.554265,202.34375 C894.981346,203.593756 894.69489,206.874973 894.69489,212.1875 L894.69489,281.875 C894.69489,287.291694 894.994366,290.677077 895.593328,292.03125 C896.192289,293.385423 897.364152,294.570307 899.108953,295.585938 C900.853753,296.601568 903.2105,297.109375 906.179265,297.109375 L909.69489,297.109375 Z M959.513302,200.15625 L959.513302,243.671875 L962.560177,243.671875 C967.247701,243.671875 971.075788,242.968757 974.044552,241.5625 C977.013317,240.156243 979.526313,237.786475 981.583615,234.453125 C983.640917,231.119775 984.982049,226.614612 985.607052,220.9375 L988.341427,220.9375 L988.341427,274.140625 L985.607052,274.140625 C984.617464,264.088491 981.922179,257.460954 977.521115,254.257812 C973.120051,251.054671 968.133122,249.453125 962.560177,249.453125 L959.513302,249.453125 L959.513302,281.875 C959.513302,287.291694 959.812779,290.677077 960.41174,292.03125 C961.010701,293.385423 962.182564,294.570307 963.927365,295.585938 C965.672165,296.601568 968.028913,297.109375 970.997677,297.109375 L974.513302,297.109375 L974.513302,300 L919.122677,300 L919.122677,297.109375 L922.638302,297.109375 C925.711234,297.109375 928.185168,296.5625 930.060177,295.46875 C931.414351,294.73958 932.456007,293.489592 933.185177,291.71875 C933.758097,290.468744 934.044552,287.187527 934.044552,281.875 L934.044552,212.1875 C934.044552,206.770806 933.758097,203.385423 933.185177,202.03125 C932.612258,200.677077 931.453415,199.492193 929.708615,198.476562 C927.963814,197.460932 925.607067,196.953125 922.638302,196.953125 L919.122677,196.953125 L919.122677,194.0625 L1008.49768,194.0625 L1008.49768,224.453125 L1005.29455,224.453125 C1004.56538,217.317673 1002.70342,212.031267 999.708615,208.59375 C996.713808,205.156233 992.377914,202.734382 986.700802,201.328125 C983.575787,200.546871 977.794595,200.15625 969.357052,200.15625 L959.513302,200.15625 Z M1070.11296,269.84375 L1032.69109,269.84375 L1028.23796,280.15625 C1026.77962,283.593767 1026.05046,286.43228 1026.05046,288.671875 C1026.05046,291.64064 1027.24837,293.828118 1029.64421,295.234375 C1031.05047,296.067712 1034.51398,296.692706 1040.03484,297.109375 L1040.03484,300 L1004.80046,300 L1004.80046,297.109375 C1008.60257,296.536455 1011.72754,294.96095 1014.17546,292.382812 C1016.62339,289.804675 1019.6442,284.479207 1023.23796,276.40625 L1061.12859,191.875 L1062.61296,191.875 L1100.81609,278.75 C1104.46194,286.979208 1107.4567,292.161448 1109.80046,294.296875 C1111.57131,295.911466 1114.07128,296.848957 1117.30046,297.109375 L1117.30046,300 L1066.05046,300 L1066.05046,297.109375 L1068.15984,297.109375 C1072.27444,297.109375 1075.16504,296.536464 1076.83171,295.390625 C1077.97755,294.557288 1078.55046,293.359383 1078.55046,291.796875 C1078.55046,290.85937 1078.39422,289.895838 1078.08171,288.90625 C1077.97755,288.437498 1077.19631,286.484392 1075.73796,283.046875 L1070.11296,269.84375 Z M1067.45671,264.0625 L1051.67546,227.578125 L1035.42546,264.0625 L1067.45671,264.0625 Z M1161.10325,194.0625 L1213.36888,259.765625 L1213.36888,214.21875 C1213.36888,207.864552 1212.45743,203.56772 1210.6345,201.328125 C1208.13449,198.307277 1203.94182,196.848958 1198.05638,196.953125 L1198.05638,194.0625 L1233.05638,194.0625 L1233.05638,196.953125 C1228.57719,197.526045 1225.56941,198.268225 1224.03294,199.179688 C1222.49647,200.09115 1221.29857,201.575511 1220.43919,203.632812 C1219.57981,205.690114 1219.15013,209.218725 1219.15013,214.21875 L1219.15013,302.421875 L1216.49388,302.421875 L1144.85325,214.21875 L1144.85325,281.5625 C1144.85325,287.65628 1146.24647,291.770823 1149.03294,293.90625 C1151.81941,296.041677 1155.00948,297.109375 1158.60325,297.109375 L1161.10325,297.109375 L1161.10325,300 L1123.52513,300 L1123.52513,297.109375 C1129.35849,297.057291 1133.42095,295.859387 1135.71263,293.515625 C1138.0043,291.171863 1139.15013,287.187528 1139.15013,281.5625 L1139.15013,206.796875 L1136.8845,203.984375 C1134.64491,201.171861 1132.66576,199.322921 1130.947,198.4375 C1129.22824,197.552079 1126.75431,197.057292 1123.52513,196.953125 L1123.52513,194.0625 L1161.10325,194.0625 Z M1352.71854,194.0625 L1352.71854,196.953125 C1349.22894,197.421877 1346.54667,198.437492 1344.67166,200 C1342.06748,202.187511 1337.95294,208.150993 1332.32791,217.890625 L1309.35916,256.25 L1309.35916,281.875 C1309.35916,287.343777 1309.64562,290.742181 1310.21854,292.070312 C1310.79146,293.398444 1311.92426,294.570307 1313.61698,295.585938 C1315.30969,296.601568 1317.56227,297.109375 1320.37479,297.109375 L1326.31229,297.109375 L1326.31229,300 L1266.85916,300 L1266.85916,297.109375 L1272.40604,297.109375 C1275.53105,297.109375 1278.00499,296.5625 1279.82791,295.46875 C1281.18209,294.73958 1282.24978,293.489592 1283.03104,291.71875 C1283.60396,290.468744 1283.89041,287.187527 1283.89041,281.875 L1283.89041,260.625 L1258.96854,215.234375 C1254.0206,206.275997 1250.53105,201.002612 1248.49979,199.414062 C1246.46853,197.825513 1243.76022,197.005209 1240.37479,196.953125 L1240.37479,194.0625 L1291.15604,194.0625 L1291.15604,196.953125 L1288.89041,196.953125 C1285.81748,196.953125 1283.66907,197.395829 1282.4451,198.28125 C1281.22114,199.166671 1280.60916,200.104162 1280.60916,201.09375 C1280.60916,202.968759 1282.69248,207.682254 1286.85916,215.234375 L1305.99979,250.3125 L1325.06229,218.359375 C1329.8019,210.546836 1332.17166,205.364596 1332.17166,202.8125 C1332.17166,201.406243 1331.49459,200.23438 1330.14041,199.296875 C1328.36957,197.994785 1325.1144,197.213543 1320.37479,196.953125 L1320.37479,194.0625 L1352.71854,194.0625 Z M1498.34512,229.785156 C1510.91029,232.714858 1519.73182,236.263 1524.80997,240.429688 C1532.10167,246.354196 1535.74747,254.036411 1535.74747,263.476562 C1535.74747,273.43755 1531.7436,281.673145 1523.73575,288.183594 C1513.90497,296.061237 1499.61475,300 1480.86465,300 L1413.5795,300 L1413.5795,296.386719 C1419.69932,296.386719 1423.84967,295.817063 1426.03067,294.677734 C1428.21167,293.538406 1429.7416,292.057301 1430.62051,290.234375 C1431.49942,288.411449 1431.93887,283.919307 1431.93887,276.757812 L1431.93887,190.820312 C1431.93887,183.658818 1431.49942,179.1504 1430.62051,177.294922 C1429.7416,175.439444 1428.19539,173.958339 1425.98184,172.851562 C1423.76829,171.744786 1419.63422,171.191406 1413.5795,171.191406 L1413.5795,167.578125 L1477.05606,167.578125 C1492.22541,167.578125 1502.96749,168.929023 1509.28262,171.630859 C1515.59776,174.332696 1520.57818,178.369114 1524.22403,183.740234 C1527.86988,189.111355 1529.69278,194.824188 1529.69278,200.878906 C1529.69278,207.259146 1527.3816,212.939428 1522.75918,217.919922 C1518.13677,222.900416 1509.99883,226.855454 1498.34512,229.785156 Z M1462.79825,227.148438 C1472.04309,227.148438 1478.86268,226.106781 1483.25723,224.023438 C1487.65179,221.940094 1491.02089,219.010436 1493.36465,215.234375 C1495.70842,211.458314 1496.88028,206.640654 1496.88028,200.78125 C1496.88028,194.921846 1495.72469,190.120461 1493.41348,186.376953 C1491.10227,182.633445 1487.79827,179.785166 1483.50137,177.832031 C1479.20448,175.878896 1472.3035,174.934896 1462.79825,175 L1462.79825,227.148438 Z M1462.79825,234.765625 L1462.79825,277.246094 L1462.70059,282.128906 C1462.70059,285.644549 1463.59576,288.297517 1465.38614,290.087891 C1467.17651,291.878264 1469.82948,292.773438 1473.34512,292.773438 C1478.55348,292.773438 1483.35487,291.61785 1487.74942,289.306641 C1492.14397,286.995431 1495.51308,283.6426 1497.85684,279.248047 C1500.2006,274.853494 1501.37247,269.954454 1501.37247,264.550781 C1501.37247,258.365854 1499.94019,252.81578 1497.07559,247.900391 C1494.21099,242.985001 1490.27223,239.550791 1485.25918,237.597656 C1480.24614,235.644521 1472.75923,234.700521 1462.79825,234.765625 Z M1646.49704,262.8125 L1642.51267,300 L1548.45017,300 L1548.45017,297.109375 L1551.96579,297.109375 C1555.03873,297.109375 1557.51266,296.5625 1559.38767,295.46875 C1560.74184,294.73958 1561.7835,293.489592 1562.51267,291.71875 C1563.08559,290.468744 1563.37204,287.187527 1563.37204,281.875 L1563.37204,212.1875 C1563.37204,206.770806 1563.08559,203.385423 1562.51267,202.03125 C1561.93975,200.677077 1560.78091,199.492193 1559.03611,198.476562 C1557.29131,197.460932 1554.93456,196.953125 1551.96579,196.953125 L1548.45017,196.953125 L1548.45017,194.0625 L1604.93454,194.0625 L1604.93454,196.953125 L1600.32517,196.953125 C1597.25224,196.953125 1594.7783,197.499995 1592.90329,198.59375 C1591.54912,199.32292 1590.48142,200.572908 1589.70017,202.34375 C1589.12725,203.593756 1588.84079,206.874973 1588.84079,212.1875 L1588.84079,279.6875 C1588.84079,285.104194 1589.15329,288.55468 1589.77829,290.039062 C1590.4033,291.523445 1591.62724,292.630205 1593.45017,293.359375 C1594.75226,293.828127 1597.90327,294.0625 1602.90329,294.0625 L1611.73142,294.0625 C1617.35645,294.0625 1622.0439,293.072927 1625.79392,291.09375 C1629.54394,289.114573 1632.78609,285.989605 1635.52048,281.71875 C1638.25487,277.447895 1640.84599,271.145875 1643.29392,262.8125 L1646.49704,262.8125 Z M1658.11233,194.0625 L1712.79983,194.0625 L1712.79983,196.953125 L1710.06546,196.953125 C1705.95085,196.953125 1703.12536,197.382808 1701.58889,198.242188 C1700.05243,199.101567 1698.95869,200.286451 1698.30764,201.796875 C1697.6566,203.307299 1697.33108,207.083303 1697.33108,213.125 L1697.33108,265 C1697.33108,274.479214 1698.04722,280.755193 1699.47952,283.828125 C1700.91182,286.901057 1703.26856,289.453115 1706.54983,291.484375 C1709.8311,293.515635 1713.97168,294.53125 1718.97171,294.53125 C1724.7009,294.53125 1729.58367,293.2422 1733.62014,290.664062 C1737.65662,288.085925 1740.67743,284.531273 1742.68264,280 C1744.68786,275.468727 1745.69046,267.578181 1745.69046,256.328125 L1745.69046,213.125 C1745.69046,208.385393 1745.19567,205.00001 1744.20608,202.96875 C1743.21649,200.93749 1741.96651,199.531254 1740.45608,198.75 C1738.11232,197.552077 1734.80506,196.953125 1730.53421,196.953125 L1730.53421,194.0625 L1767.17483,194.0625 L1767.17483,196.953125 L1764.98733,196.953125 C1762.01857,196.953125 1759.54463,197.552077 1757.56546,198.75 C1755.58628,199.947923 1754.154,201.74478 1753.26858,204.140625 C1752.59149,205.8073 1752.25296,208.802062 1752.25296,213.125 L1752.25296,253.359375 C1752.25296,265.807354 1751.43265,274.791639 1749.79202,280.3125 C1748.15139,285.833361 1744.15403,290.911435 1737.79983,295.546875 C1731.44563,300.182315 1722.77384,302.5 1711.78421,302.5 C1702.61749,302.5 1695.53423,301.276054 1690.53421,298.828125 C1683.71126,295.494775 1678.8936,291.223984 1676.08108,286.015625 C1673.26857,280.807266 1671.86233,273.802127 1671.86233,265 L1671.86233,213.125 C1671.86233,207.03122 1671.52379,203.242195 1670.84671,201.757812 C1670.16962,200.27343 1668.99776,199.088546 1667.33108,198.203125 C1665.66441,197.317704 1662.59152,196.901041 1658.11233,196.953125 L1658.11233,194.0625 Z M1815.66512,200.15625 L1815.66512,243.28125 L1817.77449,243.28125 C1824.49328,243.28125 1829.36302,241.171896 1832.38387,236.953125 C1835.40472,232.734354 1837.33178,226.510458 1838.16512,218.28125 L1841.13387,218.28125 L1841.13387,273.75 L1838.16512,273.75 C1837.54012,267.708303 1836.22502,262.760436 1834.21981,258.90625 C1832.21459,255.052064 1829.88388,252.460944 1827.22762,251.132812 C1824.57135,249.804681 1820.71723,249.140625 1815.66512,249.140625 L1815.66512,278.984375 C1815.66512,284.817738 1815.91251,288.38541 1816.40731,289.6875 C1816.9021,290.98959 1817.82657,292.057288 1819.18074,292.890625 C1820.53492,293.723962 1822.72239,294.140625 1825.74324,294.140625 L1832.07137,294.140625 C1841.96725,294.140625 1849.89686,291.848981 1855.86043,287.265625 C1861.824,282.682269 1866.10781,275.703172 1868.71199,266.328125 L1871.60262,266.328125 L1866.83699,300 L1775.27449,300 L1775.27449,297.109375 L1778.79012,297.109375 C1781.86305,297.109375 1784.33698,296.5625 1786.21199,295.46875 C1787.56617,294.73958 1788.60782,293.489592 1789.33699,291.71875 C1789.90991,290.468744 1790.19637,287.187527 1790.19637,281.875 L1790.19637,212.1875 C1790.19637,207.395809 1790.06616,204.45313 1789.80574,203.359375 C1789.28491,201.536449 1788.32138,200.130213 1786.91512,199.140625 C1784.93594,197.682284 1782.22764,196.953125 1778.79012,196.953125 L1775.27449,196.953125 L1775.27449,194.0625 L1863.94637,194.0625 L1863.94637,225.390625 L1860.97762,225.390625 C1859.46719,217.734337 1857.34482,212.2396 1854.61043,208.90625 C1851.87604,205.5729 1848.00889,203.125008 1843.00887,201.5625 C1840.09219,200.624995 1834.62349,200.15625 1826.60262,200.15625 L1815.66512,200.15625 Z" id="TIFANYBLUE" fill-rule="nonzero"></path>
                    </g>
                    <path d="M743.8,354.2 L766.9,354.2 C770.966687,354.2 774.633317,354.566663 777.9,355.3 C781.166683,356.033337 783.966655,357.233325 786.3,358.9 C788.633345,360.566675 790.433327,362.699987 791.7,365.3 C792.966673,367.900013 793.6,371.033315 793.6,374.7 C793.6,378.633353 792.866674,381.93332 791.4,384.6 C789.933326,387.26668 787.950013,389.416658 785.45,391.05 C782.949988,392.683341 780.03335,393.866663 776.7,394.6 C773.36665,395.333337 769.833352,395.7 766.1,395.7 L756.4,395.7 L756.4,425 L743.8,425 L743.8,354.2 Z M765.2,385.1 C767.266677,385.1 769.233324,384.950001 771.1,384.65 C772.966676,384.349998 774.633326,383.81667 776.1,383.05 C777.566674,382.283329 778.733329,381.23334 779.6,379.9 C780.466671,378.56666 780.9,376.833344 780.9,374.7 C780.9,372.633323 780.466671,370.950006 779.6,369.65 C778.733329,368.349993 777.583341,367.333337 776.15,366.6 C774.71666,365.866663 773.083343,365.383334 771.25,365.15 C769.416658,364.916665 767.533343,364.8 765.6,364.8 L756.4,364.8 L756.4,385.1 L765.2,385.1 Z M829.751351,418.9 L829.451351,418.9 C828.251345,421.033344 826.318031,422.783326 823.651351,424.15 C820.984671,425.516673 817.951368,426.2 814.551351,426.2 C812.618008,426.2 810.601362,425.950002 808.501351,425.45 C806.401341,424.949997 804.468027,424.116672 802.701351,422.95 C800.934676,421.783327 799.468024,420.250009 798.301351,418.35 C797.134679,416.44999 796.551351,414.100014 796.551351,411.3 C796.551351,407.699982 797.568008,404.833344 799.601351,402.7 C801.634695,400.566656 804.251335,398.933339 807.451351,397.8 C810.651367,396.666661 814.201332,395.916668 818.101351,395.55 C822.001371,395.183331 825.817999,395 829.551351,395 L829.551351,393.8 C829.551351,390.799985 828.468029,388.58334 826.301351,387.15 C824.134674,385.716659 821.551366,385 818.551351,385 C816.018005,385 813.584696,385.533328 811.251351,386.6 C808.918006,387.666672 806.984692,388.966659 805.451351,390.5 L799.251351,383.2 C801.984698,380.666654 805.134667,378.766673 808.701351,377.5 C812.268036,376.233327 815.884666,375.6 819.551351,375.6 C823.818039,375.6 827.334671,376.199994 830.101351,377.4 C832.868032,378.6 835.051351,380.166657 836.651351,382.1 C838.251359,384.033343 839.368015,386.199988 840.001351,388.6 C840.634688,391.000012 840.951351,393.399988 840.951351,395.8 L840.951351,425 L829.751351,425 L829.751351,418.9 Z M829.551351,403.1 L826.851351,403.1 C824.918008,403.1 822.884695,403.183332 820.751351,403.35 C818.618007,403.516667 816.65136,403.88333 814.851351,404.45 C813.051351,405.016669 811.551351,405.816661 810.351351,406.85 C809.151345,407.883338 808.551351,409.299991 808.551351,411.1 C808.551351,412.233339 808.801349,413.183329 809.301351,413.95 C809.801354,414.71667 810.451347,415.333331 811.251351,415.8 C812.051351,416.266669 812.951346,416.6 813.951351,416.8 C814.951356,417.000001 815.951346,417.1 816.951351,417.1 C821.084705,417.1 824.218007,416.000011 826.351351,413.8 C828.484695,411.599989 829.551351,408.600019 829.551351,404.8 L829.551351,403.1 Z M856.302703,377 L867.702703,377 L867.702703,384.7 L867.902703,384.7 C868.969375,382.299988 870.819356,380.183342 873.452703,378.35 C876.086049,376.516657 879.202685,375.6 882.802703,375.6 C885.936052,375.6 888.619358,376.149994 890.852703,377.25 C893.086047,378.350005 894.919362,379.799991 896.352703,381.6 C897.786043,383.400009 898.836033,385.466655 899.502703,387.8 C900.169373,390.133345 900.502703,392.533321 900.502703,395 L900.502703,425 L888.502703,425 L888.502703,398.4 C888.502703,396.999993 888.402704,395.533341 888.202703,394 C888.002702,392.466659 887.569373,391.083339 886.902703,389.85 C886.236033,388.61666 885.319375,387.6 884.152703,386.8 C882.98603,385.999996 881.436046,385.6 879.502703,385.6 C877.56936,385.6 875.90271,385.983329 874.502703,386.75 C873.102696,387.51667 871.952707,388.499994 871.052703,389.7 C870.152698,390.900006 869.469372,392.283325 869.002703,393.85 C868.536034,395.416674 868.302703,396.999992 868.302703,398.6 L868.302703,425 L856.302703,425 L856.302703,377 Z M908.954054,386.6 L908.954054,377 L917.354054,377 L917.354054,363.1 L929.154054,363.1 L929.154054,377 L941.154054,377 L941.154054,386.6 L929.154054,386.6 L929.154054,408.9 C929.154054,411.033344 929.537384,412.799993 930.304054,414.2 C931.070725,415.6 932.787374,416.3 935.454054,416.3 C936.254058,416.3 937.120716,416.216667 938.054054,416.05 C938.987392,415.883332 939.820717,415.633335 940.554054,415.3 L940.954054,424.7 C939.887382,425.1 938.620728,425.416665 937.154054,425.65 C935.68738,425.883334 934.287394,426 932.954054,426 C929.754038,426 927.154064,425.550004 925.154054,424.65 C923.154044,423.749995 921.570727,422.516674 920.404054,420.95 C919.237382,419.383325 918.43739,417.583343 918.004054,415.55 C917.570719,413.516656 917.354054,411.333345 917.354054,409 L917.354054,386.6 L908.954054,386.6 Z M948.405405,400.8 C948.405405,396.999981 949.088732,393.550015 950.455405,390.45 C951.822079,387.349984 953.67206,384.700011 956.005405,382.5 C958.33875,380.299989 961.105389,378.6 964.305405,377.4 C967.505421,376.199994 970.905387,375.6 974.505405,375.6 C978.105423,375.6 981.505389,376.199994 984.705405,377.4 C987.905421,378.6 990.67206,380.299989 993.005405,382.5 C995.33875,384.700011 997.188732,387.349984 998.555405,390.45 C999.922079,393.550015 1000.60541,396.999981 1000.60541,400.8 C1000.60541,404.600019 999.922079,408.066651 998.555405,411.2 C997.188732,414.333349 995.33875,417.016655 993.005405,419.25 C990.67206,421.483344 987.905421,423.233327 984.705405,424.5 C981.505389,425.766673 978.105423,426.4 974.505405,426.4 C970.905387,426.4 967.505421,425.766673 964.305405,424.5 C961.105389,423.233327 958.33875,421.483344 956.005405,419.25 C953.67206,417.016655 951.822079,414.333349 950.455405,411.2 C949.088732,408.066651 948.405405,404.600019 948.405405,400.8 Z M960.605405,400.8 C960.605405,402.666676 960.888736,404.533324 961.455405,406.4 C962.022075,408.266676 962.872066,409.933326 964.005405,411.4 C965.138744,412.866674 966.572063,414.066662 968.305405,415 C970.038747,415.933338 972.105393,416.4 974.505405,416.4 C976.905417,416.4 978.972063,415.933338 980.705405,415 C982.438747,414.066662 983.872066,412.866674 985.005405,411.4 C986.138744,409.933326 986.988736,408.266676 987.555405,406.4 C988.122075,404.533324 988.405405,402.666676 988.405405,400.8 C988.405405,398.933324 988.122075,397.083342 987.555405,395.25 C986.988736,393.416657 986.138744,391.766674 985.005405,390.3 C983.872066,388.833326 982.438747,387.650004 980.705405,386.75 C978.972063,385.849995 976.905417,385.4 974.505405,385.4 C972.105393,385.4 970.038747,385.849995 968.305405,386.75 C966.572063,387.650004 965.138744,388.833326 964.005405,390.3 C962.872066,391.766674 962.022075,393.416657 961.455405,395.25 C960.888736,397.083342 960.605405,398.933324 960.605405,400.8 Z M1013.55676,377 L1024.95676,377 L1024.95676,384.7 L1025.15676,384.7 C1026.22343,382.299988 1028.07341,380.183342 1030.70676,378.35 C1033.3401,376.516657 1036.45674,375.6 1040.05676,375.6 C1043.19011,375.6 1045.87341,376.149994 1048.10676,377.25 C1050.3401,378.350005 1052.17342,379.799991 1053.60676,381.6 C1055.0401,383.400009 1056.09009,385.466655 1056.75676,387.8 C1057.42343,390.133345 1057.75676,392.533321 1057.75676,395 L1057.75676,425 L1045.75676,425 L1045.75676,398.4 C1045.75676,396.999993 1045.65676,395.533341 1045.45676,394 C1045.25676,392.466659 1044.82343,391.083339 1044.15676,389.85 C1043.49009,388.61666 1042.57343,387.6 1041.40676,386.8 C1040.24008,385.999996 1038.6901,385.6 1036.75676,385.6 C1034.82341,385.6 1033.15676,385.983329 1031.75676,386.75 C1030.35675,387.51667 1029.20676,388.499994 1028.30676,389.7 C1027.40675,390.900006 1026.72343,392.283325 1026.25676,393.85 C1025.79009,395.416674 1025.55676,396.999992 1025.55676,398.6 L1025.55676,425 L1013.55676,425 L1013.55676,377 Z M1106.90811,396.2 C1106.90811,394.666659 1106.69144,393.200007 1106.25811,391.8 C1105.82477,390.399993 1105.14145,389.166672 1104.20811,388.1 C1103.27477,387.033328 1102.09145,386.183336 1100.65811,385.55 C1099.22477,384.916663 1097.54145,384.6 1095.60811,384.6 C1092.00809,384.6 1088.95812,385.683322 1086.45811,387.85 C1083.9581,390.016677 1082.57478,392.799983 1082.30811,396.2 L1106.90811,396.2 Z M1118.90811,401.6 L1118.90811,403.2 C1118.90811,403.733336 1118.87478,404.266664 1118.80811,404.8 L1082.30811,404.8 C1082.44144,406.533342 1082.89144,408.116659 1083.65811,409.55 C1084.42478,410.98334 1085.44144,412.216661 1086.70811,413.25 C1087.97478,414.283338 1089.4081,415.1 1091.00811,415.7 C1092.60812,416.300003 1094.27477,416.6 1096.00811,416.6 C1099.00812,416.6 1101.54143,416.050005 1103.60811,414.95 C1105.67479,413.849994 1107.37477,412.333343 1108.70811,410.4 L1116.70811,416.8 C1111.97475,423.200032 1105.10815,426.4 1096.10811,426.4 C1092.37476,426.4 1088.94146,425.816672 1085.80811,424.65 C1082.67476,423.483327 1079.95812,421.833344 1077.65811,419.7 C1075.3581,417.566656 1073.55811,414.950015 1072.25811,411.85 C1070.9581,408.749984 1070.30811,405.233353 1070.30811,401.3 C1070.30811,397.433314 1070.9581,393.916682 1072.25811,390.75 C1073.55811,387.583317 1075.34143,384.883344 1077.60811,382.65 C1079.87479,380.416655 1082.55809,378.683339 1085.65811,377.45 C1088.75812,376.21666 1092.10809,375.6 1095.70811,375.6 C1099.04146,375.6 1102.12476,376.149994 1104.95811,377.25 C1107.79146,378.350005 1110.24143,379.983322 1112.30811,382.15 C1114.37479,384.316677 1115.99144,387.01665 1117.15811,390.25 C1118.32478,393.483349 1118.90811,397.266645 1118.90811,401.6 Z M1172.21081,383.3 L1175.41081,383.3 C1177.21082,383.3 1178.99414,383.150001 1180.76081,382.85 C1182.52749,382.549998 1184.14414,382.000004 1185.61081,381.2 C1187.07748,380.4 1188.26081,379.316673 1189.16081,377.95 C1190.06082,376.583326 1190.51081,374.800011 1190.51081,372.6 C1190.51081,370.999992 1190.21081,369.566673 1189.61081,368.3 C1189.01081,367.033327 1188.19415,365.966671 1187.16081,365.1 C1186.12747,364.233329 1184.92748,363.566669 1183.56081,363.1 C1182.19414,362.633331 1180.77748,362.4 1179.31081,362.4 C1176.37746,362.4 1173.94415,363.233325 1172.01081,364.9 C1170.07747,366.566675 1168.74415,368.766653 1168.01081,371.5 L1156.71081,368.6 C1157.31081,366.199988 1158.32747,364.016676 1159.76081,362.05 C1161.19415,360.083323 1162.92747,358.38334 1164.96081,356.95 C1166.99415,355.516659 1169.27746,354.4 1171.81081,353.6 C1174.34416,352.799996 1177.0108,352.4 1179.81081,352.4 C1182.87749,352.4 1185.79413,352.816662 1188.56081,353.65 C1191.32749,354.483337 1193.7608,355.716658 1195.86081,357.35 C1197.96082,358.983341 1199.61081,360.999988 1200.81081,363.4 C1202.01082,365.800012 1202.61081,368.599984 1202.61081,371.8 C1202.61081,375.600019 1201.46082,378.983318 1199.16081,381.95 C1196.8608,384.916681 1193.7775,386.866662 1189.91081,387.8 L1189.91081,388 C1194.24417,388.866671 1197.7608,390.816651 1200.46081,393.85 C1203.16082,396.883348 1204.51081,400.599978 1204.51081,405 C1204.51081,408.666685 1203.79415,411.866653 1202.36081,414.6 C1200.92747,417.333347 1199.02749,419.599991 1196.66081,421.4 C1194.29413,423.200009 1191.64416,424.549995 1188.71081,425.45 C1185.77746,426.350004 1182.81083,426.8 1179.81081,426.8 C1176.8108,426.8 1173.97749,426.483336 1171.31081,425.85 C1168.64413,425.216663 1166.19416,424.23334 1163.96081,422.9 C1161.72747,421.56666 1159.76082,419.833344 1158.06081,417.7 C1156.3608,415.566656 1155.04415,413.033348 1154.11081,410.1 L1165.31081,406.6 C1166.17748,409.400014 1167.79413,411.766657 1170.16081,413.7 C1172.52749,415.633343 1175.61079,416.6 1179.41081,416.6 C1180.94415,416.6 1182.49414,416.383335 1184.06081,415.95 C1185.62749,415.516664 1187.02747,414.833338 1188.26081,413.9 C1189.49415,412.966662 1190.49414,411.766674 1191.26081,410.3 C1192.02748,408.833326 1192.41081,407.033344 1192.41081,404.9 C1192.41081,402.633322 1191.86082,400.716674 1190.76081,399.15 C1189.66081,397.583325 1188.27749,396.350004 1186.61081,395.45 C1184.94414,394.549995 1183.09415,393.9 1181.06081,393.5 C1179.02747,393.099998 1177.07749,392.9 1175.21081,392.9 L1172.21081,392.9 L1172.21081,383.3 Z M1241.26216,368.8 L1227.26216,380.3 L1220.26216,372 L1242.36216,354.2 L1253.26216,354.2 L1253.26216,425 L1241.26216,425 L1241.26216,368.8 Z M1303.61351,368.8 L1289.61351,380.3 L1282.61351,372 L1304.71351,354.2 L1315.61351,354.2 L1315.61351,425 L1303.61351,425 L1303.61351,368.8 Z M1388.56486,365 L1359.66486,365 L1358.96486,380.3 C1360.0982,379.966665 1361.44819,379.733334 1363.01486,379.6 C1364.58154,379.466666 1365.99819,379.4 1367.26486,379.4 C1370.73155,379.4 1373.94818,379.899995 1376.91486,380.9 C1379.88155,381.900005 1382.46485,383.34999 1384.66486,385.25 C1386.86488,387.150009 1388.58153,389.483319 1389.81486,392.25 C1391.0482,395.01668 1391.66486,398.199982 1391.66486,401.8 C1391.66486,405.733353 1390.98154,409.249984 1389.61486,412.35 C1388.24819,415.450015 1386.39821,418.066656 1384.06486,420.2 C1381.73152,422.333344 1378.99821,423.966661 1375.86486,425.1 C1372.73152,426.233339 1369.39822,426.8 1365.86486,426.8 C1359.9315,426.8 1354.93155,425.41668 1350.86486,422.65 C1346.79818,419.883319 1343.83154,416.100024 1341.96486,411.3 L1352.86486,407.3 C1353.86487,410.100014 1355.53152,412.349991 1357.86486,414.05 C1360.19821,415.750008 1362.96485,416.6 1366.16486,416.6 C1367.96486,416.6 1369.66486,416.300003 1371.26486,415.7 C1372.86487,415.099997 1374.26486,414.233339 1375.46486,413.1 C1376.66487,411.966661 1377.61486,410.550008 1378.31486,408.85 C1379.01487,407.149991 1379.36486,405.233344 1379.36486,403.1 C1379.36486,400.366653 1378.8982,398.100009 1377.96486,396.3 C1377.03153,394.499991 1375.81487,393.050005 1374.31486,391.95 C1372.81486,390.849994 1371.13154,390.083335 1369.26486,389.65 C1367.39819,389.216664 1365.49821,389 1363.56486,389 C1362.23152,389 1360.81487,389.099999 1359.31486,389.3 C1357.81486,389.500001 1356.34821,389.783331 1354.91486,390.15 C1353.48152,390.516668 1352.08154,390.933331 1350.71486,391.4 C1349.34819,391.866669 1348.13154,392.366664 1347.06486,392.9 L1348.26486,354.2 L1388.56486,354.2 L1388.56486,365 Z M1440.41622,390.3 C1439.48288,388.96666 1438.08289,387.850004 1436.21622,386.95 C1434.34954,386.049995 1432.44956,385.6 1430.51622,385.6 C1428.31621,385.6 1426.38289,386.049995 1424.71622,386.95 C1423.04954,387.850004 1421.66622,389.033326 1420.56622,390.5 C1419.46621,391.966674 1418.64955,393.616657 1418.11622,395.45 C1417.58288,397.283342 1417.31622,399.133324 1417.31622,401 C1417.31622,402.866676 1417.59955,404.716657 1418.16622,406.55 C1418.73289,408.383342 1419.58288,410.033326 1420.71622,411.5 C1421.84956,412.966674 1423.26621,414.149995 1424.96622,415.05 C1426.66622,415.950004 1428.64954,416.4 1430.91622,416.4 C1432.78289,416.4 1434.64954,416.033337 1436.51622,415.3 C1438.38289,414.566663 1439.88288,413.500007 1441.01622,412.1 L1448.51622,419.7 C1446.51621,421.833344 1443.96623,423.483327 1440.86622,424.65 C1437.7662,425.816672 1434.41623,426.4 1430.81622,426.4 C1427.28287,426.4 1423.9329,425.833339 1420.76622,424.7 C1417.59953,423.566661 1414.83289,421.900011 1412.46622,419.7 C1410.09954,417.499989 1408.23289,414.833349 1406.86622,411.7 C1405.49954,408.566651 1404.81622,405.00002 1404.81622,401 C1404.81622,397.133314 1405.49954,393.633349 1406.86622,390.5 C1408.23289,387.366651 1410.08287,384.700011 1412.41622,382.5 C1414.74956,380.299989 1417.4662,378.6 1420.56622,377.4 C1423.66623,376.199994 1426.98287,375.6 1430.51622,375.6 C1434.04957,375.6 1437.4662,376.26666 1440.76622,377.6 C1444.06623,378.93334 1446.68287,380.766655 1448.61622,383.1 L1440.41622,390.3 Z" id="Pantone3115c" fill="#4D4D4D" fill-rule="nonzero"></path>
                </g>
            </g>
        </g>
    </g>
</svg>